<?xml version="1.0" encoding="UTF-8" standalone="no"?>
<svg
   viewBox="0 0 800 480"
   version="1.1"
   id="svg3"
   sodipodi:docname="Antifa-Standard.svg"
   xml:space="preserve"
   inkscape:version="1.4.2 (f4327f4, 2025-05-13)"
   xmlns:inkscape="http://www.inkscape.org/namespaces/inkscape"
   xmlns:sodipodi="http://sodipodi.sourceforge.net/DTD/sodipodi-0.dtd"
   xmlns="http://www.w3.org/2000/svg"
   xmlns:svg="http://www.w3.org/2000/svg"><g
     id="Background"
     transform="matrix(0.78125,0,0,0.78125,200,40)"
     style="fill:#d40000;fill-opacity:1">
	<rect
   display="inline"
   fill="#000000"
   width="1024"
   height="614.40002"
   id="rect1-8"
   x="-256"
   y="-51.200001"
   style="stroke-width:1.54919;fill:#000000;fill-opacity:1" />
</g><g
     id="Outer_Circle"
     transform="matrix(0.78125,0,0,0.78125,200,40)">
	<circle
   stroke="#ffffff"
   stroke-width="5"
   stroke-miterlimit="10"
   cx="256"
   cy="256"
   r="251.5"
   id="circle1" />
</g><g
     id="Inner_Circle"
     transform="matrix(0.78125,0,0,0.78125,200,40)">
	<circle
   fill="#ffffff"
   cx="256"
   cy="256"
   r="191"
   id="circle2" />
</g><g
     id="Text"
     transform="matrix(0.78125,0,0,0.78125,200,40)">
	<g
   id="Antifascist">
		<path
   fill="none"
   d="M 457,256 C 457,367.01 367.014,457 256,457 144.986,457 55,367.01 55,256 55,144.991 144.987,55 256,55 c 111.013,0 201,89.991 201,201 z"
   id="path2" />
		<path
   fill="#ffffff"
   d="m 125.598,101.917 -5.729,5.833 -8.31,-3.606 -10.425,10.616 3.88,8.116 -5.586,5.688 -16.399,-36.424 5.569,-5.67 z m -20.203,-0.446 -13.449,-6.019 6.333,13.265 z"
   id="path3" />
		<path
   fill="#ffffff"
   d="m 131.079,97.818 -20.872,-30.82 6.055,-4.1 26.552,12.039 -13.938,-20.582 5.782,-3.916 20.872,30.82 -6.244,4.229 -26.036,-11.684 13.611,20.098 z"
   id="path4" />
		<path
   fill="#ffffff"
   d="m 172.8,72.934 -12.287,-28.38 -10.136,4.388 -2.501,-5.779 27.145,-11.751 2.502,5.778 -10.113,4.378 12.287,28.38 z"
   id="path5" />
		<path
   fill="#ffffff"
   d="m 197.518,63.604 -10.155,-35.811 7.23,-2.051 10.155,35.811 z"
   id="path6" />
		<path
   fill="#ffffff"
   d="m 214.91,58.833 -5.354,-36.836 25.252,-3.67 0.906,6.231 -17.814,2.589 1.267,8.719 15.377,-2.235 0.906,6.231 -15.377,2.235 2.275,15.654 z"
   id="path7" />
		<path
   fill="#ffffff"
   d="m 280.038,55.567 -8.173,-0.218 -3.022,-8.539 -14.874,-0.397 -3.297,8.37 -7.97,-0.213 15.487,-36.822 7.944,0.212 z m -13.439,-15.09 -4.758,-13.945 -5.395,13.673 z"
   id="path8" />
		<path
   fill="#ffffff"
   d="m 287.515,44.634 7.292,0.899 c -0.105,2.491 0.373,4.445 1.437,5.862 1.063,1.417 2.709,2.374 4.939,2.871 2.362,0.527 4.254,0.425 5.675,-0.308 1.421,-0.733 2.28,-1.768 2.579,-3.106 0.191,-0.858 0.103,-1.646 -0.267,-2.361 -0.37,-0.716 -1.133,-1.437 -2.288,-2.163 -0.793,-0.489 -2.633,-1.455 -5.52,-2.896 -3.715,-1.852 -6.206,-3.666 -7.475,-5.44 -1.784,-2.496 -2.356,-5.182 -1.715,-8.057 0.413,-1.85 1.323,-3.464 2.732,-4.841 1.408,-1.376 3.193,-2.266 5.356,-2.668 2.161,-0.402 4.639,-0.292 7.431,0.332 4.56,1.017 7.77,2.783 9.628,5.296 1.858,2.513 2.473,5.452 1.845,8.814 l -7.407,-1.314 c 0.103,-1.937 -0.271,-3.43 -1.121,-4.478 -0.851,-1.048 -2.309,-1.803 -4.373,-2.264 -2.131,-0.476 -3.897,-0.41 -5.299,0.196 -0.902,0.389 -1.458,1.054 -1.668,1.995 -0.191,0.859 0.008,1.676 0.599,2.449 0.751,0.983 2.817,2.293 6.198,3.933 3.38,1.639 5.825,3.099 7.334,4.381 1.509,1.282 2.572,2.812 3.19,4.588 0.618,1.776 0.671,3.813 0.159,6.11 -0.465,2.082 -1.479,3.902 -3.04,5.461 -1.563,1.56 -3.499,2.545 -5.811,2.957 -2.313,0.412 -5.046,0.266 -8.201,-0.438 -4.593,-1.025 -7.883,-2.873 -9.871,-5.545 -1.988,-2.672 -2.766,-6.094 -2.338,-10.265 z"
   id="path9" />
		<path
   fill="#ffffff"
   d="m 350.388,62.921 5.741,5.047 c -2.657,3.27 -5.572,5.284 -8.744,6.044 -3.173,0.76 -6.587,0.336 -10.244,-1.271 -4.524,-1.989 -7.564,-5.169 -9.119,-9.541 -1.555,-4.372 -1.153,-9.239 1.203,-14.601 2.493,-5.671 5.894,-9.433 10.201,-11.284 4.309,-1.851 8.849,-1.727 13.622,0.371 4.168,1.832 7.013,4.552 8.533,8.161 0.909,2.138 1.151,4.741 0.729,7.809 l -7.526,-1.367 c 0.373,-1.943 0.146,-3.708 -0.683,-5.292 -0.829,-1.584 -2.158,-2.779 -3.986,-3.583 -2.526,-1.11 -4.975,-1.104 -7.344,0.018 -2.37,1.122 -4.447,3.713 -6.231,7.772 -1.894,4.309 -2.468,7.717 -1.721,10.227 0.745,2.51 2.358,4.31 4.838,5.399 1.828,0.803 3.656,0.914 5.484,0.331 1.828,-0.584 3.577,-1.996 5.247,-4.24 z"
   id="path10" />
		<path
   fill="#ffffff"
   d="m 359.455,83.593 19.761,-31.544 6.369,3.99 -19.761,31.543 z"
   id="path11" />
		<path
   fill="#ffffff"
   d="m 380.958,82.659 6.061,4.152 c -1.239,2.164 -1.713,4.119 -1.42,5.865 0.291,1.747 1.313,3.354 3.064,4.822 1.855,1.555 3.582,2.334 5.181,2.337 1.598,0.003 2.838,-0.521 3.719,-1.571 0.565,-0.674 0.849,-1.415 0.85,-2.22 10e-4,-0.805 -0.345,-1.796 -1.037,-2.973 -0.479,-0.799 -1.668,-2.502 -3.568,-5.111 -2.446,-3.353 -3.824,-6.109 -4.135,-8.269 -0.436,-3.038 0.292,-5.686 2.185,-7.943 1.217,-1.453 2.768,-2.467 4.652,-3.041 1.884,-0.575 3.878,-0.543 5.982,0.095 2.105,0.637 4.254,1.875 6.446,3.712 3.581,3.001 5.618,6.045 6.112,9.131 0.494,3.086 -0.312,5.978 -2.417,8.675 l -5.972,-4.575 c 0.981,-1.672 1.336,-3.17 1.063,-4.491 -0.272,-1.322 -1.22,-2.662 -2.841,-4.021 -1.674,-1.402 -3.272,-2.157 -4.796,-2.263 -0.979,-0.07 -1.778,0.265 -2.398,1.004 -0.565,0.675 -0.764,1.491 -0.595,2.449 0.215,1.219 1.446,3.333 3.694,6.343 2.248,3.01 3.747,5.432 4.497,7.264 0.75,1.833 0.991,3.68 0.723,5.542 -0.269,1.862 -1.159,3.695 -2.67,5.498 -1.37,1.634 -3.107,2.785 -5.211,3.451 -2.104,0.666 -4.278,0.65 -6.52,-0.047 -2.243,-0.698 -4.603,-2.085 -7.081,-4.162 -3.606,-3.022 -5.678,-6.177 -6.214,-9.464 -0.536,-3.287 0.347,-6.682 2.646,-10.189 z"
   id="path12" />
		<path
   fill="#ffffff"
   d="m 408.097,124.533 23.756,-19.8 -7.071,-8.485 4.837,-4.031 18.938,22.723 -4.837,4.032 -7.056,-8.465 -23.756,19.8 z"
   id="path13" />
	</g>
	<g
   id="Action">
		<path
   fill="none"
   d="M 496.5,255.999 C 496.5,123.174 388.832,15.499 256.001,15.499 123.172,15.5 15.5,123.174 15.5,255.999 15.5,388.824 123.172,496.5 256.001,496.5 388.832,496.5 496.5,388.824 496.5,255.999 Z"
   id="path14" />
		<path
   fill="#ffffff"
   d="m 163.716,478.938 -7.288,-3.705 0.935,-9.01 -13.264,-6.743 -6.57,6.146 -7.107,-3.613 29.792,-26.611 7.084,3.602 z m -5.662,-19.399 1.687,-14.637 L 149,454.937 Z"
   id="path15" />
		<path
   fill="#ffffff"
   d="m 203.875,476.978 6.407,4.17 c -2.16,3.617 -4.755,6.03 -7.785,7.237 -3.03,1.208 -6.47,1.279 -10.32,0.214 -4.764,-1.317 -8.229,-4.028 -10.396,-8.132 -2.167,-4.104 -2.469,-8.977 -0.907,-14.622 1.652,-5.971 4.477,-10.182 8.474,-12.632 3.998,-2.451 8.508,-2.981 13.533,-1.591 4.389,1.214 7.594,3.497 9.618,6.85 1.207,1.985 1.821,4.526 1.843,7.623 l -7.644,-0.271 c 0.09,-1.978 -0.389,-3.69 -1.437,-5.14 -1.048,-1.449 -2.535,-2.44 -4.46,-2.973 -2.659,-0.735 -5.081,-0.378 -7.265,1.072 -2.184,1.45 -3.867,4.313 -5.05,8.588 -1.255,4.535 -1.333,7.991 -0.234,10.367 1.098,2.377 2.953,3.926 5.563,4.648 1.925,0.532 3.75,0.379 5.476,-0.461 1.726,-0.839 3.254,-2.488 4.584,-4.947 z"
   id="path16" />
		<path
   fill="#ffffff"
   d="m 231.883,495.335 2.59,-30.817 -11.006,-0.925 0.527,-6.274 29.477,2.477 -0.527,6.275 -10.981,-0.923 -2.59,30.817 z"
   id="path17" />
		<path
   fill="#ffffff"
   d="m 263.703,496.407 -1.729,-37.183 7.507,-0.35 1.73,37.183 z"
   id="path18" />
		<path
   fill="#ffffff"
   d="m 282.478,477.29 c -0.749,-3.717 -0.82,-6.948 -0.217,-9.694 0.456,-2.025 1.253,-3.921 2.392,-5.688 1.138,-1.766 2.489,-3.177 4.056,-4.234 2.079,-1.42 4.604,-2.429 7.575,-3.027 5.376,-1.082 10.014,-0.28 13.913,2.406 3.898,2.686 6.446,6.999 7.642,12.939 1.186,5.892 0.512,10.823 -2.021,14.794 -2.533,3.973 -6.479,6.497 -11.84,7.576 -5.426,1.092 -10.074,0.306 -13.942,-2.36 -3.871,-2.666 -6.39,-6.903 -7.558,-12.712 z m 7.541,-1.776 c 0.832,4.132 2.416,7.072 4.754,8.82 2.338,1.749 4.975,2.327 7.912,1.735 2.938,-0.591 5.135,-2.134 6.593,-4.629 1.457,-2.494 1.761,-5.857 0.908,-10.089 -0.841,-4.182 -2.386,-7.117 -4.634,-8.806 -2.248,-1.689 -4.89,-2.228 -7.927,-1.616 -3.037,0.612 -5.275,2.146 -6.715,4.602 -1.439,2.457 -1.736,5.784 -0.891,9.983 z"
   id="path19" />
		<path
   fill="#ffffff"
   d="m 337.13,482.967 -14.69,-34.201 6.72,-2.886 23.808,16.827 -9.811,-22.84 6.416,-2.755 14.69,34.201 -6.929,2.976 -23.368,-16.381 9.58,22.303 z"
   id="path20" />
	</g>
</g><g
     id="Flags Graphic"
     transform="matrix(0.78125,0,0,0.78125,200,40)"
     style="fill:#ff0000;fill-opacity:1">
	<path
   fill="#000000"
   d="m 125.667,122.917 c 0,0 28,33.083 89.25,34.333 61.251,1.25 95.917,-37.917 130.917,-33.333 35,4.584 63,43.333 77.75,50.167 L 333,425.75 c 0,0 -1.833,1.334 -11,4.667 -9.167,3.333 -11.333,4.333 -11.333,4.333 l 40.25,-122.917 c 0,0 -38.75,-32.687 -73.75,-35 -35.001,-2.313 -50.917,23.75 -110.083,13.75 C 107.917,280.583 69.5,243.5 69.5,243.5 c 0,0 -1.415,-21.067 14.5,-59.833 15.914,-38.765 41.667,-60.75 41.667,-60.75 z"
   id="path21"
   style="fill:#000000;fill-opacity:1" />
	<path
   fill="#ff0000"
   d="m 69.917,251.25 c 0,0 41.084,38.416 102.417,46.083 61.332,7.667 67.039,-14.491 100.916,-14.25 21.548,0.153 29.334,9.584 29.334,9.584 l -53.506,149.67 c 0,0 -4.18,-0.044 -10.092,-0.692 -5.911,-0.648 -9.541,-1.294 -9.541,-1.294 L 257,357.5 c 0,0 -13.584,-8.707 -27.25,-10.5 -13.668,-1.793 -21.042,3 -46.5,2.5 -24.073,-0.473 -71.25,-12.75 -93.333,-45.75 -22.083,-33 -20,-52.5 -20,-52.5 z"
   id="path22"
   style="fill:#d40000;fill-opacity:1" />
</g><g
     id="Inner_Circle_Border"
     transform="matrix(0.78125,0,0,0.78125,200,40)">
	<circle
   fill="none"
   stroke="#ffffff"
   stroke-width="5"
   stroke-miterlimit="10"
   cx="256"
   cy="256"
   r="188.5"
   id="circle22" />
</g></svg>
