<svg viewBox="0 0 800 480" xml:space="preserve" xmlns="http://www.w3.org/2000/svg">
  <g style="fill:#d40000;fill-opacity:1">
    <path fill="#000" style="stroke-width:1.54919;fill:#d40000;fill-opacity:1" d="M-256-51.2H768v614.4H-256z" transform="translate(200 40)scale(.78125)"/>
  </g>
  <circle stroke="#fff" stroke-width="5" stroke-miterlimit="10" cx="256" cy="256" r="251.5" transform="translate(200 40)scale(.78125)"/>
  <circle fill="#fff" cx="256" cy="256" r="191" transform="translate(200 40)scale(.78125)"/>
  <path fill="none" d="M557.031 240c0 86.727-70.301 157.031-157.031 157.031S242.969 326.727 242.969 240c0-86.726 70.302-157.031 157.031-157.031S557.031 153.274 557.031 240"/>
  <path fill="#fff" d="m298.123 119.623-4.475 4.557-6.493-2.818-8.144 8.294 3.031 6.34-4.364 4.445-12.812-28.457 4.351-4.43zm-15.783-.349-10.507-4.702 4.947 10.363zm20.065-2.854L286.1 92.342l4.73-3.203 20.744 9.406-10.889-16.08 4.518-3.06 16.306 24.079-4.878 3.303-20.34-9.128 10.633 15.702zM335 96.98l-9.6-22.172-7.918 3.428-1.954-4.515 21.207-9.18 1.955 4.514-7.9 3.42 9.598 22.172zm19.31-7.29-7.933-27.977 5.649-1.602 7.933 27.977zm13.588-3.727-4.182-28.778 19.728-2.867.708 4.868-13.918 2.023.99 6.811 12.013-1.746.708 4.868-12.013 1.746 1.777 12.23zm50.882-2.551-6.385-.17-2.361-6.672-11.62-.31-2.576 6.54-6.227-.167 12.1-28.767 6.205.165zm-10.5-11.79-3.717-10.894-4.215 10.682zm16.341 3.248 5.697.703q-.123 2.918 1.123 4.58t3.858 2.242q2.768.618 4.434-.24 1.665-.86 2.015-2.427.224-1.006-.209-1.844-.434-.84-1.787-1.69-.93-.574-4.313-2.263-4.353-2.17-5.84-4.25-2.09-2.925-1.34-6.294.484-2.168 2.135-3.782t4.184-2.085 5.806.26q5.343 1.192 7.521 4.137 2.178 2.946 1.442 6.886l-5.787-1.026q.12-2.27-.876-3.499-.997-1.228-3.416-1.769-2.497-.557-4.14.154-1.057.455-1.303 1.558-.224 1.007.468 1.913.88 1.152 4.842 3.073 3.961 1.92 5.73 3.423t2.492 3.584.124 4.774q-.545 2.44-2.375 4.266-1.831 1.828-4.54 2.31-2.71.483-6.407-.342-5.382-1.2-7.711-4.332t-1.827-8.02m49.12 14.287 4.485 3.943q-3.114 3.831-6.831 4.722-3.718.89-8.004-.993-5.301-2.33-7.124-7.454t.94-11.407q2.922-6.646 7.97-8.816 5.049-2.168 10.642.29 4.884 2.147 6.666 6.376 1.065 2.505.57 6.1l-5.88-1.067q.437-2.278-.534-4.135t-3.114-2.799q-2.96-1.3-5.737.014t-4.868 6.072q-2.22 5.05-1.345 7.99.874 2.941 3.78 4.218 2.142.941 4.284.259t4.1-3.313m7.083 16.15 15.438-24.644 4.976 3.117-15.438 24.643zm16.8-.73 4.735 3.244q-1.453 2.536-1.11 4.582.342 2.047 2.394 3.767 2.174 1.823 4.048 1.826 1.872.003 2.905-1.227.663-.79.664-1.735 0-.943-.81-2.322-.56-.936-2.787-3.993-2.867-3.93-3.231-6.46-.51-3.56 1.707-6.206 1.427-1.703 3.634-2.376 2.208-.673 4.674.075 2.467.746 5.036 2.9 4.196 3.517 4.775 7.133t-1.888 6.778l-4.666-3.575q1.15-1.96.83-3.508-.32-1.55-2.22-3.142-1.96-1.643-3.746-1.768-1.147-.082-1.873.785-.663.79-.465 1.913.251 1.428 2.886 4.955 2.634 3.529 3.513 5.675.879 2.149.565 4.33-.316 2.182-2.086 4.295-1.606 1.915-4.071 2.697-2.467.78-5.094-.037t-5.532-3.252q-4.227-3.541-4.855-7.393-.627-3.852 2.067-7.96m21.203 32.713 18.56-15.468-5.525-6.63 3.779-3.148 14.795 17.752-3.779 3.15-5.512-6.613-18.56 15.468z"/>
  <path fill="none" d="M587.89 240c0-103.77-84.115-187.891-187.89-187.891-103.772 0-187.89 84.12-187.89 187.89S296.227 427.891 400 427.891c103.775 0 187.89-84.122 187.89-187.892"/>
  <path fill="#fff" d="m327.903 414.17-5.694-2.894.73-7.04-10.362-5.267-5.132 4.801-5.553-2.822 23.275-20.79 5.535 2.814zm-4.423-15.155 1.318-11.435-8.392 7.84Zm35.797 13.624 5.006 3.258q-2.531 4.239-6.082 5.654t-8.063.167q-5.583-1.544-8.122-6.353t-.708-11.424q1.936-6.997 6.62-9.868t10.573-1.243q5.143 1.422 7.514 5.351 1.414 2.327 1.44 5.956l-5.972-.212q.105-2.317-1.123-4.016t-3.484-2.322q-3.117-.862-5.676.837t-3.945 6.71q-1.47 5.314-.183 8.099t4.346 3.631q2.255.624 4.278-.36t3.581-3.865m21.882 14.341 2.023-24.075-8.598-.723.411-4.902 23.03 1.936-.412 4.902-8.58-.721-2.023 24.076zm24.859.838-1.35-29.05 5.864-.273 1.352 29.05zm14.668-14.935q-.877-4.356-.17-7.574a13.7 13.7 0 0 1 1.87-4.443q1.332-2.07 3.168-3.308 2.436-1.664 5.918-2.365 6.3-1.268 10.87 1.88 4.568 3.147 5.97 10.108 1.39 6.905-1.58 11.558-2.967 4.656-9.25 5.919-6.359 1.28-10.891-1.844-4.536-3.124-5.905-9.931m5.891-1.388q.975 4.843 3.714 6.89 2.74 2.05 6.182 1.356t5.15-3.616.71-7.882q-.986-4.9-3.62-6.88t-6.193-1.262-5.247 3.595q-1.686 2.879-.696 7.8m36.806 5.822-11.477-26.72 5.25-2.254 18.6 13.146-7.665-17.844 5.013-2.152 11.476 26.72-5.413 2.324-18.256-12.797 7.484 17.424z"/>
  <g style="fill:#000;fill-opacity:1">
    <path d="M125.667 122.917s28 33.083 89.25 34.333 95.917-37.917 130.917-33.333 63 43.333 77.75 50.167L333 425.75s-1.833 1.334-11 4.667-11.333 4.333-11.333 4.333l40.25-122.917s-38.75-32.687-73.75-35-50.917 23.75-110.083 13.75C107.917 280.583 69.5 243.5 69.5 243.5s-1.415-21.067 14.5-59.833 41.667-60.75 41.667-60.75" style="fill:#d40000;fill-opacity:1" transform="translate(200 40)scale(.78125)"/>
    <path fill="#d40000" d="M69.917 251.25s41.084 38.416 102.417 46.083 67.039-14.491 100.916-14.25c21.548.153 29.334 9.584 29.334 9.584l-53.506 149.67s-4.18-.044-10.092-.692c-5.911-.648-9.541-1.294-9.541-1.294L257 357.5s-13.584-8.707-27.25-10.5c-13.668-1.793-21.042 3-46.5 2.5-24.073-.473-71.25-12.75-93.333-45.75s-20-52.5-20-52.5" style="fill:#000;fill-opacity:1" transform="translate(200 40)scale(.78125)"/>
  </g>
  <circle fill="none" stroke="#fff" stroke-width="5" stroke-miterlimit="10" cx="256" cy="256" r="188.5" transform="translate(200 40)scale(.78125)"/>
</svg>
