<svg width="3840" height="2160" viewBox="0 0 3840 2160" xmlns="http://www.w3.org/2000/svg">
  <path style="fill:#000;stroke-width:.978165" d="M0 0h3854.982v2157.611H0z"/>
  <g style="stroke-width:.999551;stroke-dasharray:none">
    <path style="fill:#fff;stroke-width:.999551;stroke-dasharray:none" d="M429.455 778.814h2975.787v548.766H429.455z" transform="matrix(1.1219 0 0 1.11143 -219.271 -95.759)"/>
    <path d="M774.23 790.179h160.607v395.292h250.66v129.141H774.23Zm490.685 0h160.962v524.433h-160.962zm224.78 0h168.052l116.999 377.406 115.226-377.406h163.089l-192.87 524.433h-174.08zm615.838 0h430.414v111.97h-269.452v83.35h249.952v106.962h-249.952v103.384h277.252v118.767h-438.214zm496.713 350.934 152.808-9.66q4.963 37.563 20.208 57.238 24.818 31.838 70.909 31.838 34.39 0 52.826-16.098 18.791-16.456 18.791-37.92 0-20.39-17.727-36.488t-82.254-30.407q-105.653-23.968-150.68-63.676-45.381-39.708-45.381-101.238 0-40.424 23.045-76.197 23.4-36.13 69.845-56.521 46.8-20.749 127.99-20.749 99.625 0 151.743 37.562 52.472 37.204 62.4 118.767l-151.39 8.943q-6.027-35.415-25.527-51.513-19.145-16.098-53.181-16.098-28.009 0-42.19 12.163-14.182 11.805-14.182 28.976 0 12.52 11.7 22.537 11.345 10.374 53.89 19.318 105.299 22.894 150.68 46.505 45.736 23.252 66.3 57.952 20.917 34.7 20.917 77.628 0 50.44-27.654 93.01t-77.29 64.749q-49.636 21.821-125.153 21.821-132.599 0-183.653-51.513t-57.79-130.93" style="font-size:192px;font-family:&quot;Arial Black&quot;;-inkscape-font-specification:&quot;Arial Black, &quot;;white-space:pre;stroke-width:.999551;stroke-dasharray:none" aria-label="LIVES" transform="matrix(1.1219 0 0 1.11143 -219.271 -95.759)"/>
    <path d="M433.548 195.553h328.22q82.055 0 125.791 38.617 44.124 38.617 44.124 95.623 0 47.811-31.35 82.015-20.902 22.802-61.155 36.042 61.154 13.976 89.796 48.18 29.029 33.835 29.029 85.325 0 41.927-20.514 75.395t-56.122 52.96q-22.062 12.137-66.573 17.654-59.22 7.355-78.572 7.355H433.548ZM610.43 407.027h76.25q41.027 0 56.896-13.24 16.256-13.608 16.256-38.985 0-23.538-16.256-36.778-15.869-13.24-55.735-13.24h-77.41zm0 211.841h89.41q45.284 0 63.863-15.079 18.578-15.446 18.578-41.191 0-23.906-18.578-38.25-18.192-14.71-64.25-14.71H610.43zm439.304-423.315h175.334V601.95h273.646v132.768h-448.98zm877.833 450.163H1727.85l-27.48 89.003h-179.206l213.266-539.166h191.203l213.266 539.166h-183.463zm-36.77-116.586-62.702-193.82-62.315 193.82zm667.665-14.711 153.66 44.133q-15.483 61.42-48.77 102.611-33.286 41.192-82.828 62.155-49.156 20.964-125.405 20.964-92.505 0-151.337-25.377-58.445-25.745-101.02-90.106-42.577-64.362-42.577-164.766 0-133.873 74.702-205.59 75.088-72.085 212.104-72.085 107.213 0 168.367 41.192 61.542 41.191 91.345 126.516L2551.882 386.8q-8.128-24.642-17.03-36.043-14.708-19.124-35.996-29.422t-47.608-10.298q-59.605 0-91.344 45.605-23.997 33.836-23.997 106.288 0 89.739 28.642 123.207 28.642 33.1 80.507 33.1 50.316 0 75.862-26.848 25.932-26.848 37.544-77.97zm239.585-318.866h175.334v203.75l183.85-203.75h233.005L3183.55 398.935l215.975 335.784H3183.55l-119.599-221.771-90.57 90.106v131.665h-175.334z" style="font-size:192px;font-family:&quot;Arial Black&quot;;-inkscape-font-specification:&quot;Arial Black, &quot;;white-space:pre;fill:#fff;fill-opacity:1;stroke:#fff;stroke-width:.999551;stroke-dasharray:none;stroke-opacity:1" aria-label="BLACK" transform="matrix(1.1219 0 0 1.11143 -219.271 -95.759)"/>
    <path d="M439.886 1384.055H630.98l73.744 316.009 73.424-316.01H968.6v519.36H849.968v-396.073l-92.02 396.074h-107.41l-91.7-396.074v396.074H439.887Zm910.58 433.626h-165.443l-22.765 85.734h-148.45l176.666-519.36h158.39l176.665 519.36h-151.977zm-30.46-112.303-51.94-186.7-51.621 186.7zm173.78-321.323h441.504V1512.3h-148.13v391.115h-145.244V1512.3h-148.13zm474.208 0h441.503V1512.3h-148.13v391.115h-145.244V1512.3h-148.13zm506.91 0h389.241v110.886H2620.47v82.545h226.042v105.927H2620.47v102.384h250.73v117.618h-396.294zm476.452 519.36v-519.36h242.073q67.332 0 102.921 12.753t57.393 47.472q21.802 34.365 21.802 83.963 0 43.22-16.672 74.75-16.673 31.176-45.85 50.661-18.596 12.4-50.98 20.548 25.971 9.565 37.834 19.13 8.016 6.377 23.085 27.28 15.39 20.901 20.52 32.238l70.218 150.565h-164.161l-77.592-158.713q-14.749-30.822-26.291-40.033-15.71-12.045-35.59-12.045h-12.825v210.79zm145.885-308.924h61.24q9.94 0 38.475-7.085 14.428-3.189 23.406-16.297 9.298-13.108 9.298-30.113 0-25.153-14.428-38.615t-54.186-13.463h-63.805z" style="font-size:192px;font-family:&quot;Arial Black&quot;;-inkscape-font-specification:&quot;Arial Black, &quot;;white-space:pre;fill:#fff;fill-opacity:1;stroke:#fff;stroke-width:.999551;stroke-dasharray:none;stroke-opacity:1" aria-label="MATTER" transform="matrix(1.1219 0 0 1.11143 -219.271 -95.759)"/>
  </g>
</svg>
