<svg xmlns="http://www.w3.org/2000/svg" width="800" height="533" viewBox="0 0 211.7 141">
  <path fill="#b41f23" d="M0 0h211.7v141H0z" paint-order="stroke fill markers"/>
  <path d="M-.2 0h147.8l63.8 141H63.6z" paint-order="stroke fill markers"/>
  <g fill="#eeac17" transform="translate(-8.4 -3.8)scale(1.0645)">
    <path d="M100 80.5q.7 1.9 1.5 2h8.7c2.2 0 2.2 0 2.6-.4q.7-.8 1-1.9c.3-.7.3-8.7 0-8-3-.4-.1 7.4-2.4 8.5h-2.8V78q.2-13.4.1-26.9 0-.9-.6-1.5c-.7-.5-1.8-.5-2.5 0q-.7.6-.7 1.6v24l.1 4.2v1.5h-2.5c-2.6-1.2.3-9.2-2.8-8.9-.1.1 0 8.1.2 8.6"/>
    <path d="M108.8 95a2 2 0 1 1-2-2 2 2 0 0 1 2 2h-2z" paint-order="stroke fill markers"/>
    <path d="M106.2 91.2h1.2v2.4h-1.2z" paint-order="stroke fill markers"/>
    <rect width="5" height="1.8" x="104.3" y="89.4" stroke="#000" stroke-width=".4" paint-order="stroke fill markers" rx=".5" ry=".9"/>
    <rect width="5" height="1.8" x="77.5" y="-107.7" paint-order="stroke fill markers" rx=".5" ry=".9" transform="rotate(90)"/>
    <rect width="17.5" height="2.3" x="66.6" y="-107.9" paint-order="stroke fill markers" rx="1.8" ry="1.1" transform="rotate(90)"/>
    <rect width="5" height="1.8" x="104.6" y="83.9" stroke="#000" stroke-width=".4" paint-order="stroke fill markers" rx=".5" ry=".9" transform="translate(-.2)"/>
    <path d="M108.4 87.5a1.6 1.6 0 1 1-1.6-1.6 1.6 1.6 0 0 1 1.6 1.6h-1.6z" paint-order="stroke fill markers"/>
  </g>
  <path stroke="#000" stroke-linecap="round" stroke-linejoin="round" stroke-width=".1" d="M105.4 42.9h-.2V83h.2z"/>
  <g fill="#eeac17">
    <path d="M81.6 41q-.2-.5-1.5-1.8-2-2-2-3.2c0-.6.7-1.6 1.2-2q.4-.4.8.2l.3.5.6.8q1 1 2 .1c.5-.6.5-1 0-2.2-1.4-3-1.5-3.6-1-5.2.4-.8.7-1.3 1.9-3l.4-.8.4-.2q.6 0 2.4 1.7 1 1 .2 2.7a9 9 0 0 0-.7 3.4c0 1 .3 2 .6 2q.2.1.3-1.4.3-3.5 1.3-2.4c.8.7.6 1.5-.7 3.7-.7 1.2-.7 1.3-.7 2.2q0 1 .2 1.4.5 1-.2 1.8c-.4.4-.6.5-1.5.7q-2.4.3-3.2 1-.5.6-.7.6zm1.2-1.6 1-1.4q.7-.7 1-1.3c.4-1.2.4-3.3 0-5.4-.2-.8-.1-4 0-4.6l.2-.4-.3.4c-.7.7-.9 2.4-.6 6.5.1 1.8.1 2-.2 3l-.8 1.6q-1 1.4-.8 2l.2.3zm2.6-1 .5-.8c.3-.5.3-1.4.1-1.4s-1.5 2.1-1.4 2.3q.2.3.8-.2m-4 0c.1-.2-2-2.3-2.3-2.3q-.3 0 0 .6c.4.6 1.7 1.8 2.1 1.8zm-4.9 10.2c0-.8 1-2.4 2.2-3.5.7-.6 2.7-1.9 3.9-2.4q2.5-1 1.6.6-.4.4-.4 1.2c0 .7.1.8.6 1.2l1 .6q.9.3.9 1 0 .2-.8.2l-1.6.2-.8.2-1-.5q-1-.7-1.8-.6-1.5 0-3 1.5l-.7.6zm7-2.2c0-.6-2.2-1.3-3.1-1q-.8.5.2.4c.6 0 1.8.2 2.2.6q.5.4.6 0"/>
    <path d="m72.1 51.6-.3-.9c0-.4-1.3-1.7-2.5-2.4l-1.5-1c-.6-.8-.4-2 .4-2.7q.5-.6.9.5c.4.8 1.3 1.7 2 1.9q1.5 0 .8-1.7c-.8-1.6-.8-2.4.4-4.8l1.2-2.7.7.3c2.1 1.2 2.4 2 1.5 4.1-.6 1.2-.6 1.2-.4 1.8.4 1.2.8 1.1 2-.7l.8-1c.3-.1 1.3.8 1.3 1.2l-.7 1a8 8 0 0 0-2.6 3.8q-.5 1.4.1 1.2.5 0 .2.6c-.1.3-.8.7-1.2.7-.5 0-1.8.7-2 1q-.5.7-1-.2m2-2.4q.7-.5-.2-2.6l-.4-1.9.4-2q.8-1.8.3-2.7-.3-.7-.5.6-.1.8-.5 1.9c-.3 1-.3 1.3-.3 2.2q0 1 .3 1.4l.2 1.9q0 1.6.2 1.4.3 0 .5-.2m-1.5-.2q-.2-.4-1.3-1c-1-.5-.8.2.4.8q1 .6.9.2m2.7-1.7.4-.8q.7-1.2-.1-.7t-.7 1.6q0 .5.2.2z"/>
    <path d="M68.8 63.6a2 2 0 0 0-1.3-.2q-1.4.2-2.1-1-.4-.6-.4-1.3-.1-.9.5-.8c.5-.2 1.4-1 1.4-1.5l-.6-1a7 7 0 0 1-1.4-2.4c0-.2 1.4-1.4 2-1.8a3 3 0 0 1 3.3.3l1 1.3q.6 1.2 1 1 .4.1.6-.5l.2-1c0-1.2 1.2-2.9 2.3-3.3.9-.4 3 0 3 .4l-.9 3.4-.8 1q-1.1 1 .6.4h1.1q1 .5-.3.7-.7.1-1.3.4-.5.3-1 .3c-.3 0-1 .8-1.2 1.3q-.3.7 1 1.2 1.4.8.2 1.3l-1.2.8-.6.5-.7-.3c-1-.7-1.7-.6-3 .5l-.8.6zm1.4-2c.3-.5.6-1 1.7-2a12 12 0 0 0 2.8-4.4l1-1.4q.9-1 0-.5-.6.1-1.7 2.2-1.2 2-2.3 3.2-2.1 2.1-2 3 0 1 .5 0m3-.5c0-.4-.6-1-.8-1q-.3 0 .3.9t.6.1m-4.6-.7c0-.2-.9-1-1-1-.2.2.5 1.2.8 1.2q.2 0 .2-.2m2.3-2.3c.1-.4-.8-1.7-1.5-2.2l-1.3-.7c-1.2-.4-1 .3.4 1q.8.5 1.4 1.4 1 1.2 1 .5m-4.3 19.4c-.2-1-.5-1.4-1.9-1.8q-2.3-.7-3-1.6l-.7-1.4c-.4-1.3-.3-1.4 1.4-1.4 1 0 1.2 0 1.5-.2.4-.4.4-.3-.4-1.8-.8-1.3-.8-1.9 0-3.8q.2-.9.5-1 .4 0 2.4 1.6.8.8 1.5-.5l.5-.6c.2 0 .4.7.3 1 0 .1 0 1.2.2 1.9q.2.3-.6 1.1-2.3 2.3-1.3 4.5.5 1.2.5-.2c-.2-1 0-1.6 1-3s3.6-4.2 3.9-4c.4.1.2 1.9-.6 3.7-.5 1-.6 1.4-.9 2.8a9 9 0 0 1-1 3.2 14 14 0 0 1-2.9 2.4q-.2 0-.4-.9m2-2.3.4-.8q0-.4.6-.7t.6-.4q0-.3-.4 0-.2.3-.4 0-.4-.6.4-2 .6-1.1.2-.7-.6.5-1 1.6c-.5 1.9-.6 2.3-1 2.7q-.6.8 0 .7zm-2.2-.9c-.5-1-.5-1.6-.5-3.3 0-2-.2-2.6-.9-3.6q-.5-.8-.5-.3l.3.9q.3.5.3 1.2.1 4.8 1 5.6.7.4.3-.5m-2-.7-1-.4q-1.2-.4-.6 0c.4.4 1.6.7 1.6.4M73 91.1a7 7 0 0 0-2.4-1.3l-.6-.4q-.3-.3-.3-1.6t-.3-1.9l-.4-.7-.6.6q-1 1.4-2 1.5c-.3 0-.3 0-.3-1.3v-1.8c0-.7.4-2.2.6-2.4l.2-1.1q-.1-1.4.7-1.5.3-.1.5-.5c.4-.6 3.5-1.8 4.5-1.8 1.3 0 1.8 1.6.9 3l-.5.6h-1q-1.7-.1-.8.5c.3.3 3.3.4 3.3 0q0-.2-.2-.2t-.1-.3c0-.4 1.8-.1 2 .3 0 .7-1.2 1.4-2.6 1.4-1 0-1 0-1.1.4q-.4 1.1 1 2.4 3 2.8.8 6-.5.9-1.2 0m.2-2.1-.7-1.1a10 10 0 0 1-2-4.8l-.3-1.2c-.4-.8-1.8-2.4-2-2.3s.2.8.6 1.2q.9.8 1.2 2.6c.3 1.5.6 2.4 2 4.8q1 1.5 1.2.8M67.7 85l.7-1.2c.6-.8.8-1.8.4-2l-.1.4q0 .5-.4 1-1.1 1.5-1 1.9 0 .7.4 0"/>
    <path d="M66 79q-.6-.5-2-.1t-1.6-.2q-.7-.6.3-1.6l.4-.5h1.1q1 .1 1.4.4.7.4.9 1.7l-.1.6q-.3 0-.4-.3m10.6 18.5-1-.6c-1-.6-1.5-.7-3-.9q-1.4 0-2-.4c-1.2-.6-2.1-2.6-1.4-3.2q.2-.3 1 .2 1.5.8 2.8 0a6 6 0 0 0 2.6-2.4c.3-.6.4-1 .4-2.2 0-1.6 0-1.7 1-2.9q.7-.7 1-.5l.4 1c.2.9.2 1.1-.2 2.8-.7 3.6-.6 5.7.4 7.7.8 1.4.7 1.6-.6 1.5zm0-2.5q-.5-1-.2-3.1v-1q-.5-.2-.6 1.4 0 2.3.6 3t.2-.3m-2.5-.1-1-.5c-1-.4-2.2-.4-2.5 0q-.2.3 1.6.4l1 .1q1 .3 1 0"/>
    <path d="m85.6 111.2-.4-1.6c0-.6-.5-1.8-.8-2l-1 .4q-1.3.7-2 .1c-.2-.3-.3-1.7 0-2.8.1-1 .6-2.2 1.1-2.6q.3-.2.3-.4l-.6-.6-1.2-1.2c-.4-.6-1-1.2-1.3-1l.3.5q.9.8-.2 2-.6.7-1 .4l-.8-.7c-.5-.8-.3-1.6 1-3.4q.4-.5.4-1.5c0-1 .3-3 .5-3.4q.2-.3 1 .4 1 1 2 1t1.1-3.3c0-1.4.1-1.8.9-2.8l.4-.8q.2-.3.7-.3 1.9 0 1.4 2.3c-.2.8-.2 1-1.4 2.7q-.7 1-.8 1.6c-.1.6 0 1.6.3 1.7l.6-.5q.8-1 2-1.2.6-.2-.1 1l-.7 1.7q-.3 1.1-.7 1.5-1.2 1.3-4.1.8-.9-.1-.7.4c0 .4.5 1.3.9 1.6q1 .8 2 .8 1.2.1 3.2-1.8c.7-.7 1.5-1.2 1.6-1.3 1-.2 1.6.4.7.8s-1.4 1.6-.6 2.2c.5.4 2 .4 3.4.1q1.5-.2 1.6.4.2.3-.7.3-.3 0-.3.3t.9.7q1.4.6 1.7 2c.1.7 0 .7-1.2 0-1-.5-2.3-.9-3-.7q-.7 0-.6.8 0 1 1.8 2.2 3 1.9 2.9 3.3v.5h-2.4l-2.6-.1-1-1.2q-1.1-1.9-1.5-1.2c-.7 1.3-2.2 3-2.5 3q-.3 0-.5-1m7.3-1.4-.6-.7-1.5-1.5c-1-1.2-2.4-2.5-3.2-2.9L86 104l-1.1-.4v.6c.2.6.1.7-.5 1.4l-.7 1q.2.6 1.3-1 .7-1 1-1 .2 0 .8.6c.6.5.7.6.7 1.3l.2 1q.3.4.5-.6 0-.5.3-.6l.8 1q1 1.4 2.9 2.4 1 .6.8.1m-2.8-5.7q.6-.7 1-.7.6-.2.2-.5-.6-.3-1.9.8-.7.7-.6.9.3.4 1.3-.5m-2.5-1.5.4-.6q0-.4-.7.2l-.7.4-.1.2c0 .3.7.1 1-.2m-1.7-5.7-.4-.3c-1.4-.1-1.6-.2-1.8-.5q-.3-.3.2-1 .8-1.1-.4 0c-.6.6-.6.6-1 .4l-.4-.2-.3.8q-.3.9 0 1 .4.2 1-.3t1.7.2q1.4.5 1.4 0m.2-7q.5-1 0-1c-.2 0-.6.7-.6 1.2q0 .8.6-.2m44.4-44.6c-1.6-.2-1.5-1.4.1-1.8.6-.2 1-.2 2 0l1.6.3h.3q0-.5-1.2-.8c-1.2-.2-1.5-.4-2-1.3l-.5-.8q-.2.1-.1 1v.8h-.7q-1 0-1.1.8 0 .6-.4.7c-.5 0-1.6-2.3-1.6-3.4 0-.4 0-.4 1.4-.4.8 0 .9 0 1.4-.6.6-.6.6-.6 1-.3q.7.5 1-.3.4-.7.8-.1c.4 1.2.8 1.8 2.4 3l1 .8c.2.4.2 1.8 0 2l-1.7.1-2.2.2z"/>
    <path d="M130.5 38.9c-.3-.6-.4-2.3-.1-3.1q.2-.7.1-1.3c-.2-1.4-.2-1.6 0-2.3q.4-.7.4-1 0-.5.2-.7c.2-.2.3-.2 1.5.2q3 1 2.4 3.5l-.2 1.5-.1.7-1-.2c-1.1-.6-1.4-.4-2 1.3q-.7 2.3-1.2 1.4m-6.8-4.8q-1-.3-1.4-1.6-.7-2.7-2.5-2.5-.7 0-1.6.3l-.9.3q-.7.2 1.6-3.3 1-1.8 2.6-1c.6.2 2 1.6 3.2 3 1 1.2 1.7 1.7 3.4 2.4l1.4.5v1.3l-.4-.1q-1.6-.5-2.8.3-1.4 1-2.6.4m1.6-1.6q.6-.4.8-.3h.1q0-.3-.6-.5t-2-1.8c-1.5-1.6-1.9-1.8-2.8-1.6q-.7.2 0 .5h.7c.4.2 2.3 2.1 2.3 2.4q0 .3-.4.4-1.1.3.2.3 1.3-.3 1.2.2 0 .3-.2.3t-.3.2q-.1.5 1-.1"/>
    <path d="m127.7 30.9-1.8-1.6-1.7-1.8a7 7 0 0 1-1.6-2l-.5-1.1q-.5-1.1.1-1.3 1-.3 4.2 2.3c.9.7 1 .8 2 3.1l1 1.1.7.7c0 .4-.6 1.5-.8 1.5q-.4 0-1.6-1m.4-.7-.7-.9-1-1.8c-.7-1.2-1.8-2.4-2.4-2.6q-.7-.2.3 1 .8.7 1.2 1.8.5 1.2 1.4 2c.8.6 1.5 1 1.2.5m-21.7 87.2q-2.7-3.7-5.4-4.1c-3.6-.6-3.8-.7-3.9-1.7q-.2-2.1-3-3.8c-1.9-1.2-2.7-2.5-1.1-2q1.5.6 2.6 1.5 1.3 1 1.5.2 0-.8 1-.3.7.4 2.7.6c2.5.2 3.4.6 4.6 1.9q2.3 2.5 2.7 7.8c0 1.4 0 1.5-.2 1.5q-.3 0-1.5-1.6m-.5-3q0-.3-.6-1-1-1-.5-1.4h.4l.5.2q.4.1-.2-.4l-.6-.3-1.2-1q-1-.8-1.7-1.1c-1-.4-4.2 0-4.4.5 0 .3 0 .3 1.6 0 .5-.1.6 0 1.2.5l.9 1.1q.2.6.3.2t-.2-.9l-.3-.7q.2-.3 1 .2c.4.4 1 1.6 1 2.2q0 .7.4-.1l.2-.5q.2 0 .6 1l.7 1.2c.3.4.9.5.9.2"/>
    <path d="M99.5 118.7v-2.2c0-1.7 0-2 .2-2.3q.3-.5 1-.4c1.2 0 3 1 3.6 2q.1.6-.5.7l-1.4 1-1.5 1.1c-.5.4-1.3.4-1.4 0m9.1-4.3-.3-.7-.7-1.7-.5-1.4q0-.4 1.3-1.5 1.1-.9 1.2-1.3-.1-1.2-2-1.6-1.5 0 .2-1.6c.9-.9 1.2-1 2.4-.4a4 4 0 0 0 2.7.3q1-.3 1.5.6.8.9-.6 1.2l-1 .5q-.6.6-.9 0-.1-.3-.9-.5l-1.2-.5q-.5-.3-.6-.1s.6.6.9.6l.9.4q1.2.6 0 2l-.6 1 .5-.5q1.2-1.6 2.6-2.3 1.4-1 1.3.4l.1.8q.5.4-.4.9-1.3.6-2.6 2.6c-.9 1.3-2.5 3-2.9 3zm.9-3.4.1-.3-.4.3q-.3.3-.1.3z"/>
    <path d="m116.1 112.6-.8-1.4q-1.2-1.5-.3-2t.8.5q.1 1 .3 0c.1-1 0-1.2-.6-1.8q-.7-.6-.4-1 0-.4.7-.8c.7-.4 1-1 .5-.7q-1 .5-1.3-.2l-.4-.6-.4-.5q-.4-.4-1.2-.5-1.5-.2-1.3-.9c0-.2 1.4-1 1.9-1q.4 0 1.3 1c.9.9 1 1 1 1.4q-.1.4.4.3l1.3-.1q2-.4 2.2 1.7v.6l-1.2.1c-1.7.2-1.9.2-1.9.8l.2.6.6 1.1q.9 1.7 0 3t-1.4.4"/>
    <path d="m116 103.4-.2-.7q-.3-1 1-1.6 2.6-1 2.3.7-.3 1.8-2.3 1.7zm4.5 3.3-.3-1.6-.2-1.4.5-.4q.8-.6 1.4-3c.4-1.6.5-2 1.2-2.6q1-1 1.6-1 .3.1.1.8l-.2 1.8-.3 1.8q-.1 1.3.2 1.3l.7-.7 1.4-1.5a5 5 0 0 0 1.3-2c1.3-3.5 1.5-3.8 3.3-4.6l1.9-1q.7-.4.9-.2c.6.6-.2 3-1.7 5.4q-.8 1.3-1 2 0 .8-.5 1.5l-.5.7q.1.3 1-.5 1.2-.9 1.1 0-.2 1-1.4 1.7-.6.3-2.3.4c-2 .2-2.4.3-4.4 1.6-1.8 1.1-3.5 1.8-3.8 1.5m3.8-3c2.8-1 4.5-2.3 5.7-4.7.8-1.5 1.6-3.6 1.5-3.9-.2-.4-1 1-1.7 2.7a7 7 0 0 1-2.7 3.8 8 8 0 0 1-3.1 1.7q-2.1.6-2 1c0 .2.3 0 2.3-.6"/>
    <path d="M125.1 100.7c-.1-.2.3-2.3.5-2.7q.5-.9 1.1 0c.5.4.5.4-.6 1.9q-.9 1.3-1 .8m2.5 4.9c-1.6-.3-.8-1 1-.8h1.3q1.1-.4.4.5-.8.6-2.7.3m5.1-6.5.4-.7.4-.8q0-.4.6-.6c.8-.3 2.7-2.1 3.4-3.2a10 10 0 0 0 1.6-3.5q0-.3-.4-.4l-1.4-.3c-1.8-.3-2.5-.8-3.3-2.2-.3-.7-.5-2.3-.3-2.5l1 .1q1.6.3 2-.5c0-.3 0-.6-.4-1.8q-1.6-4.2 1.4-3.2.6.3 1.4 1.2 1.6 1.8 1.9.3v-2.8c-.5-3.5-.1-4.7 1.6-5.9l1.5-1.2q.8-.7 1-.6 2.4 2.7 2.5 4.3 0 .6-.3 1.4l-.4 1.2q0 .6.7.7c.6 0 1.5-.9 2-1.8q.8-1.5 1.3.4c.2 1-.4 2-2.3 4.2a6 6 0 0 1-2.2 1.7c-1 .5-1 .5-1 1.1q0 1.4 1 2.5l.7 1c-.2.4-1.6 1-3.2 1.2-3.2.5-3.4.6-4.2 2.7a12 12 0 0 1-2.1 3.5 6 6 0 0 0-1.5 2.7q0 .8-.5.7-1.3.3-2.1 1t-.8 0m8.5-12q.2-1 1.2-2c.7-.4 1.5-1 1.5-1.2q-.1-.4-1 .2-.6.7-.7.1a9 9 0 0 1 1-2.5c0-.2.7-.4 1.2-.6 1-.3 2-1 2-1.3l-.4.2c-.5.4-2 .7-2.3.5v-1c.2-.4.4-1.3.4-1.8a4 4 0 0 1 .9-2q1-1.4.5-2.3t-.6.3-.6.3c-.2-.8-.4 0-.5 1.5 0 1.4-.4 3.3-.7 3.6l-1 2.7-.9 2.5-1.3-1q-1.7-1.7-1.6-1t1.5 1.5c1.3.8 1.3 1 1.1 2l-.2 1.6q0 .7.2.2zm-1.3-.1c-.1-.4-1.3-1.1-1.7-1.1s-1.3.6-1.3.9h1q1 0 1.4.2.8.5.6 0m-3.2 10.6q.1-.7 3-1.6c1.7-.5 2-.5 2 0q0 1.2-3.1 1.7c-2 .3-2 .3-2-.1M145 69l-.2-.9q-.4-1.6-1.7-2.5c-.8-.4-1.5-.3-3 .4-1.5.8-1.8.9-2.2.7-.8-.5-1-2-.2-3.4.5-1 1.6-2.3 1.8-2.4q.2 0 .4.5c.2.6 1 1.3 1.4 1.3q1.5-.2 1.4-2.4 0-1.9-1.4-2.6a5 5 0 0 1-2-1.6q-.7-.9.5-2.5l1-1.2q-.2-.4 1.2 0 1 .1 2 .5c1.7.9 2.3 2 2.5 5.4q0 2.8 1 1.4 1.5-1.8 1.6-4.8 0-1.2 1.1 0c.8.8.9 1.2.3 2.6-.9 2.1-1 3.2-.2 4.6l.4 1.2c0 .6 0 .7-.6 1.4l-2 1.7c-1.8 1.3-2.3 1.8-2.5 2.3q-.5.9-.6.3m1-1.9-.1-.8-.2-1.2c-.1-.6 0-.6.4-.9l1.3-1c.7-.6.8-.7.8-1.4q0-.7-.2-.7l-.4.6c-.5.7-1.8 2.1-2 2.1q-.6 0-.6-3.6c0-2.1 0-2.4-.3-3.2-.4-1.1-1.7-2.6-2-2.3-.1.2 0 .4.5 1.4l.6 1.4q-.1.5-.7-.1c-.5-.8-1.7-2-2.2-2.2q-.5-.3-.6 0t1.1 1.5l1.6 1.6.6.5c.3.2.3.4.4 2.5v2.2h-1.8q-1.9 0-2.4-.2t-.5 0l.3.3q.8.4.4.8l-.1.4 1-.1q.8 0 1.2-.3 1.3-.7 2-.6.6.4 1 2.2.6 2 .9 1.1m-.7-11.4q0-.5-.4-.9l-.3-.4v.6q0 1 .6 1.1zm-4 16c-.1-.3-.2-1.2 0-1.7q0-.5.8-.8 1-.5 1.6 0l.3.3-1.1 1.1q-1.5 1.6-1.6 1m-2-21.7q-.6-.4-.7-1.3a5 5 0 0 0-1.7-2.6c-.3-.1-.3-.2-.2-1.5 0-1.6-.1-2.1-1.2-3-.8-.7-1.1-1-1.6-1.7-.6-1.2-.9-3.1-.4-3.1l.9.3 1.3.4q1.4.1 3.5 2.1 3 2.9 3 4.8c.1.8 0 1-.5 2.4l-.8 2.3q-.4 1.4-1 1.4zm-.2-2.4v-1.4c0-1 0-1 .6-1.6q.7-.6.8-1.4 0-1.3-.3-.6l-.5.5q-.5.8-.6-1l-.3-1.2c-.5-.9-1.6-2-2.5-2.4-1-.5-2-.7-2-.4l1.3 1q2 1.1 2.5 2.6l.2 3c.1 2.1.1 2.4.4 2.9l.4.5zm-1.7 6.5q-.9-.5-1-1.3.1-1.6 2.2-1.7 2.3 0 .9 2.1-1 1.5-2.1 1"/>
  </g>
</svg>