<svg xmlns="http://www.w3.org/2000/svg" viewBox="0 0 800 421.053">
  <path fill="#fff" d="M0 0h800v421.053H0z"/>
  <g fill="#2cc772">
    <path d="M0 0h800v32.389H0zM0 64.777h800v32.389H0zM0 129.555h800v32.389H0zM0 194.332h800v32.389H0zM0 259.109h800v32.389H0zM0 323.887h800v32.389H0zM0 388.664h800v32.389H0z"/>
    <path d="M0 0h320.25v226.721H0z"/>
  </g>
  <path fill="#ffdf0a" d="M160.5 47.757c-60.5 0-108.168 23.355-108.875 73.531-.707 50.884 48.375 74.938 108.875 74.938s109.625-26.164 109.625-74.219c0-47.348-49.125-74.25-109.625-74.25m-.344 20.5c59.755 0 66.469 39.594 66.469 39.594H93.688s6.36-39.594 66.468-39.594m-67.875 60.094h135.75s-2.411 47.375-68.218 47.375c-65.796 0-67.532-47.375-67.532-47.375"/>
</svg>