<svg xmlns="http://www.w3.org/2000/svg" xml:space="preserve" viewBox="0 0 800 480">
  <path fill="#000" d="M0 0h800v480H0z"/>
  <path fill="#cc0001" d="m520 423-2-2-1-1-1-1-2-3-3-3v-2h-2l-1-1-1-1h-2v-1c-1 0-2-5-1-6v-2l-3-7v-2l-2-1q-1-2-4-2-4 1-4-4l-1-2-3-1-2 1-1 1-2 1-4 2-3 2h-1l-2 1-3 1-3 2-2 1-1 1-2 1-4 1-5 2-4 2-3 2h-1l-3 1-21 1c-2 1-22 0-23-1h-16q-3 1-2-2 0-1 0 0l-1 1-1-1h-1q0 2-4-1l-5-1h-4l-2-1-2-1-7-1q-12-2-13-4l-1-1-1-1v-1h-2l-8-5v-2h1l-1-1h-2l-1 1h-1l-1-1-2-1v-1l-2 1-1 2-3 6-1 3-2 6-2 4-1 2-3 9v4l-2 3q0 1-2 3l-7 1h-6l-1-2-1-9c0-9 0-9 2-10l1-4q0-5 2-7l1-12v-10l-8-8h-1l-7-6-1-2-1-1q1-1-1-1l-6-4-4-6-2-3q-3-1-2-4l-1-2q-3-1-4-7v-2h-3l-3-1v-1q-1-1-1 1 0 3-2 5c-2 1-2 2-8 2l-6 2h-3l-1 1h-2l-1 1h-1l-1 1-6 1q-5 1-5-2v1l-1 2-1-1h-5v-3l-1-2v-8l2-1q4 1 5-2l2-2 4-2 5-2q3 0 3-2v-2l4-2 5-2 1-2 1-1h2q-1 0 0 0l2-2 4-4 2-2 1-1q2 0 2-6l1-2h1l-1-1-2-7-1-2-1-8-1-4c-2-3-1-14 1-16h2v-1l1-1v-1l-1-2 2-7 1-1-1-1v-1l4-6 1-2v-2l3-9 2-5 1-2 1-1 3-3 2-3v-2l3-8 1-2 2-1 1-2q0-3 4-5l2-2 2-5 4-4v-1q-1-1 4-7l4-4 3-2 3-1 6-4 4-6q0-4 2-3h2l1-1 4-4 4-4 2-1 2-1 2-1 1 2h1l1-2h1l3-1h6q0-2 5-3l6-2 5-2h2l2-1 2-1 5-3 1-1 1-5 1-1q2-4 6-6v-1l2-2 1-2 1-3c2-2 2-2 2-10q0-11 3-12l1-2v-7l1-4-1-4 2-13 1-1q-1-2 2-9l1-3 1-3q3-3 5-1l1 4-1 1 1 1h1l1 2c1 1 5 15 4 18l1 2 1 5 1 5 3 6 1 1q2 0 2 8v3c2 0 4 6 4 9v2l1 4v3q3 1 3 6v4c0 2 8 3 12 1h2l2 1h6q3 0 3 2-1 2 5 2l2 2q0 2 3 2l3 1 2 1 3 1 2 2 2 2 4 1 1 1h3q-1 2 0 0l3 2 3 1 5 2q5 2 3 3h1v1l1 2 3 1q3 0 3 2l1 3 1 2v1l2 1 1 1q3-1 2 2 1 3 4 2l2 1 5 5 4 4 1 2 2 2v2l3 5q0 2 1 1h2l1-1 1 2v2h5l6 1c1 1 12-1 15-2h3v-1h1l5-2 3-1q4 0 3 2h1l1-2 1 2v-1q0-2 3-3l5-1 4-2 3-1c0-1 12-1 13 1l1 6-1 5-3 2q-3 3-8 3l-2 1-2 1-1 1-2 1-2 1-1 1-2 1-3 2-2 2-1 1-2 1-1 1-1 1q-1 3-4 5l-1 1h-2l-1 2-1 1-2 2-6 3-4 3-2 6-1 2 1 1 1 7 1 3v19q2 4-1 7-3 2-1 2c2 0 3 7 2 8v3l-2 5v8l1 4-4 14-1 2h-2v4q0 5-2 5-2 2-1 3l-1 1-1 1h1v7l-1 3-2 3-3 3-2 2-3 2-2 2q-2 1-2 5l-2 2-2 4v4q2 0 1 6l-1 6v1l1 1 2 1v3l-1 3 1 4 1 4 1 4q3 0 2 6l2 6 1 4 1 3v12l-5 1zm-111-51h2l1 1v-1h2l1-1 3-1 1 2v1-1q0-2 3-2h7q0 1 0 0 1-3 3-2l2 1 2-2 6-2 12-4 3-1h1l2-3 5-3 3-2q3 0 4-4l-2-6q-2 0-2-3l-2-5-1-7-1-4q-3-1-4-6l-1-3v-2l-1-1-3-8-1-1-1-4q0-6-2-7l-2-6-1-3v-5l-1-7-1-3-1-1-1-1-3-4-5-3-1-1-8 2-10 3-6 1h-2l-1 1q-1 2-2-1h-1l-1 1-1-1v1q0 3-2 1l-3 1q-1 0 0 0v2l-5 2-8 1-13 2q-1 2-4 1v1l-4 3-3 2-4 3q-1-1-1 2t-2 5l-3 4-1 3-3 5-1 1v2l-1 1-1 3-1 2v1l-1 2-3 9-2 7-1 2 1 2-1 4-1 6q-2 4 2 7l4 2 6 2 4 2q5 1 5 3l1 1h1l1 2 1-1 1-1v1l3-1q3 0 5 2 1 3 4 2l3 1h2l2 1 1 1 2 2q0 1 0 0h9l8 1 7 1zm-108-43q0-7 2-7v-2q0-4 3-7v-2l-1-3q1-5 4-5v-1h-3l-2 1h-2l-1 1-3 1h-2q0-1 0 0h-2l-3 3-2 5 1 2v6q-2 1 1 1h1l1 1 1 1 1 1 2 2 3 5zm203-14v-4l1-6q1 0 3-7l2-4 2-7 1-2q2-1 1-5l1-4 1-5v-14l1-10 1-6 1-6v-1l-1-2q0-3-3-5l-1-1-1-1-1-1v1q0 4-2 2h-3 1v1c-1 2-8 5-9 5l-2 1h-5v1l-1 2-2-1h-2l-5 4-11 4 1 1 1 1 1 1 3 6 1 2 1 7-1 1h1l1 2 1 1 3 7q-1 2 1 3c3 3 4 13 3 17v3l1 2 1 4 2 3 1 3-1 3v1l2 1 1 1q3-1 5 3l1 2 1-2zm-218-42q0 2 0 0l5-5 10-3 3-1 2-1 3-3 4-3 3-1c0-1 8-3 9-2h2l3-2 2-2 2-14v-3l2-4c1-5 5-12 6-12l-1-1c-1 0-1-5 1-7l1-3 1-1 1-3v-3l1-1 1-2 1-2q-1-3 2-5v-1h1l1-3 3-10v-1l1-4 2-2q1 1 1-1l-1-2 1-6h-2l-1 1q-2 3-9 6l-2 1q-1 2-2-1v1l-2 2-1 1-6 5-2 1-2 1-2 2-1 1-3 2-3 3-1 1-2 1h-2l-1 1v1q0-1 0 0l-4 5-1 2-2 2-1 1-1 1-1 2-2 3-1 1-1 2-1 2c0 2-4 7-5 6q0-1 0 0v2l-2 8-2 5-1 3-1 2c1 1-1 6-2 7l-1 1v3c1 1 0 7-1 8l-2 11q0 10 2 7zm82-30zl3-1 9-2 7-2 14-4 2-1 1 1v1-1l1-2 6-2q4-2 8-2h3v-1q2 0 3-3v-4l-1-5-4-6-1-3-1-1-2-5-2-7-2-5-1-2-3-7 1-1-1-2q-4-3-4-6l-1-5v-6q1 0 0 0l-1-1-2-2q-3-2-3-6v-1h-1q-2-1-2 1l-1 3-2 5-1 2-1 4-1 2-1 2q2 1 0 0l-1 1 1 1-2 6-1 3v7q0 7-2 8l-1 4-1 1 1 7-1 1h-1l-1-2v2l-2 4-2 3-2 11h-1v4q0 3-2 6l-2 1q1 0 0 0v3l-2 3v3h1zm91-32 4-1 4-1 2-1h1l3-1 2 1v-1l2-1 1-1h1l2-1c2-2 8-4 10-4 1 0 5-4 3-4l-1-1-2-1-2-3-2-2-2-2q0-2-2-2l-6-6-1-1-2-2-2-1-7-4-1-1-1-1-2-1-5-2h-1l-1-1-4-1-4-3-2-1-1-2-3-1q-3 0-1 1v5l1 5c2 0 3 6 1 7l1 1 2 3 2 4 2 4 2 4 2 4v1l1 1 1 2q3 3 1 7v2l2 2q0 3 2 1"/>
</svg>