<?xml version="1.0" encoding="UTF-8" standalone="no"?>
<svg
   width="750"
   height="500"
   viewBox="0 0 380 230"
   version="1.0"
   id="svg7"
   sodipodi:docname="SaboTabby.svg"
   inkscape:version="1.4.2 (f4327f4, 2025-05-13)"
   xmlns:inkscape="http://www.inkscape.org/namespaces/inkscape"
   xmlns:sodipodi="http://sodipodi.sourceforge.net/DTD/sodipodi-0.dtd"
   xmlns="http://www.w3.org/2000/svg"
   xmlns:svg="http://www.w3.org/2000/svg">
  <defs
     id="defs7" />
  <sodipodi:namedview
     id="namedview7"
     pagecolor="#505050"
     bordercolor="#eeeeee"
     borderopacity="1"
     inkscape:showpageshadow="0"
     inkscape:pageopacity="0"
     inkscape:pagecheckerboard="0"
     inkscape:deskcolor="#505050"
     inkscape:zoom="0.28531759"
     inkscape:cx="259.36011"
     inkscape:cy="-155.96655"
     inkscape:window-width="2560"
     inkscape:window-height="1009"
     inkscape:window-x="1912"
     inkscape:window-y="-8"
     inkscape:window-maximized="1"
     inkscape:current-layer="svg7" />
  <path
     style="fill:#da121a;fill-opacity:1;fill-rule:nonzero;stroke:none"
     d="m 0,-11.667 380,3.33e-4 L 0,241.667 Z"
     id="path1"
     sodipodi:nodetypes="cccc" />
  <path
     style="fill:#000000;fill-rule:nonzero;stroke:none"
     d="M 380,-11.667 V 241.667 L 0,241.66667"
     id="path2"
     sodipodi:nodetypes="ccc" />
  <path
     d="M269.798 114.043a79.804 79.804 0 0 1-78.84 80.755 79.804 79.804 0 0 1-80.756-78.84 79.804 79.804 0 0 1 78.84-80.756 79.804 79.804 0 0 1 80.756 78.84"
     style="opacity:1;vector-effect:none;fill:#000;fill-opacity:1;fill-rule:nonzero;stroke:none;stroke-width:5.0666666;stroke-miterlimit:4;stroke-dasharray:none;stroke-opacity:1;paint-order:markers stroke fill"
     id="path3" />
  <path
     d="M260.52 113.968a70.524 70.524 0 0 1-69.674 71.364 70.524 70.524 0 0 1-71.365-69.672 70.524 70.524 0 0 1 69.672-71.366 70.524 70.524 0 0 1 71.366 69.672"
     style="opacity:1;vector-effect:none;fill:#fff;fill-opacity:1;fill-rule:nonzero;stroke:#fff;stroke-width:5.0666666;stroke-miterlimit:4;stroke-dasharray:none;stroke-opacity:1;paint-order:markers stroke fill"
     id="path4" />
  <g
     style="stroke-width:.96581209"
     id="g7">
    <path
       style="clip-rule:evenodd;fill:#000;fill-rule:evenodd;stroke-width:.48934481"
       d="M271.92 29.372c1.27 5.801-3.533 9.824 0 13.333-.82 2.21-3.315 2.745-4.848 4.243.486 4.122-1.74 5.531-4.242 6.666-.002 3.331-1.22 5.446-3.03 6.97.236 7.709-3.408 11.54-7.272 15.15 1.967 6.09 5.777 11.144 7.878 17.272 10.502 30.628-3.01 62.452-19.696 78.482-6.128 5.887-15.53 10.977-23.635 14.848-.258 2.368-.803 4.45-.607 7.272-.314 1.604-2.632 1.207-3.03 2.727-.347 1.67 2.365 1.863 1.515 3.03-1.765-.04-3.71.986-6.06 1.212-.64-1.482-.016-4.226-1.818-4.545-1.482.907.138 3.06-.303 4.848-2.86-1.358-3.214-6.43-2.121-10-1.65-3.235-3.82.594-6.667 1.213-2.02.438-2.606-1.166-4.242.302-3.361-.682-6.431-1.698-11.514-2.121-3.155-.262-6.749.079-9.09-.606-1.983-.58-3.51-2.444-5.152-2.424-1.56.018-3.664 1.45-4.545 2.121-1.498-1.573-2.541-.69-3.637-.303-2.473-.354-1.791-3.865-2.727-5.757-16.21-8.634-28.53-21.245-35.756-39.695-3.627-9.262-6.097-18.312-5.152-31.514 2.218-30.95 18.012-53.14 41.211-64.542 7.816-3.842 17.67-7.101 27.271-7.879 9.76-.79 20.634 2.386 27.878 4.848 3.113 1.058 7.13 2.145 10.605 3.94 2.542 1.312 6.782 5.487 9.09 5.454 2.87-.04 2.976-2.925 4.546-4.848 1.595-.182 2.603.224 3.94.303.287-9.51 7.625-11.97 14.241-15.151 1.399-.187 1.744.68 3.03.606 1.3-.517 1.371-2.265 2.122-3.333 3.052-1.408 7.481-3.002 11.818-2.122m-63.633 15.151c-2.986-.804-6.262-1.831-9.09-2.121-34.513-3.535-56.962 14.637-70.603 35.15-1.819 2.734-4.093 5.444-5.152 8.181-3.492 9.038-6 21.274-5.757 33.332.296 14.764 6.143 29.445 12.727 38.484 4.614 6.335 11.723 14.734 18.786 19.393 1.966 1.296 6.564 4.745 8.485 4.545 1.797-.187 2.881-2.634 4.848-3.636 2.173-1.108 3.885-1.118 5.757-2.424.027-13.562-1.54-25.53-3.636-36.968 1.905-3.38.33-7.503-3.333-7.88-.781-.97-.728-3.477-3.03-3.332-4.698.295-1.314 12.006-6.364 13.333-4.074 1.07-9.705-4.082-6.364-7.272.94 3.028 5.974 2.03 5.152-1.818 3.444-.039 6.08-6.152 3.333-8.485-1.919.63-1.48 2.023-2.727 3.03-1.79 1.444-3.81.83-6.06 1.515-1.357.413-2.47 1.965-3.94 2.121-5.24.557-7.046-6.624-12.424-5.757-4.628-2.929 1.037-7.799 0-13.03-.423-2.13-2.404-4.036-2.727-6.666-.47-3.832-.346-7.206 2.121-9.697 3.034 1.512 2.729 6.362 6.06 7.576 2.359-1.399 3.105-3.106 5.758-3.94 2.763-.867 6.216.02 8.787-1.211 5.375-2.575 3.331-11.36 9.394-13.333.503 2.65 1.27 6.271 1.515 9.696.242 3.382-.82 6.851.606 9.09 3.912-3.158 4.288-9.852 5.151-16.059.62-.997 1.922-1.31 2.728-2.121 3.115-12.844 14.914-17.003 22.423-25.454.416 5.054 4.385 3.178 6.97 1.213 2.758 2.327 4.722-.962 8.18-.607.606 6.87 6.01 8.94 11.213 11.212 1.317 2.723 1.305 6.775 1.212 10.909 1.395 2.14 2.153 4.916 3.333 7.272 3.39-1.62 1.29-5.61 1.515-8.787.111-1.578 1.365-3.22 1.515-4.848.262-2.837-1.173-5.593-.909-8.485 1.137-.554 1.978.516 3.636.303.504-4.243 2.68-6.816 3.334-10.909-5.654-5.336-13.611-9.14-22.423-11.515m38.483 117.571c10.103-11.785 15.774-28.7 14.848-49.089-.612-13.482-3.395-27.332-11.515-33.938-1.324 2.514-4.902 2.775-5.757 5.758-1.472.083-2.81-.822-3.636.303 5.622 6.09-4.792 12.18-8.788 14.241-.767 2.778-5.543 7.37-6.06 10.303-.152.865.687 1.84.606 2.727-.14 1.524-1.963 2.631-2.121 3.94-.361 2.994 1.843 4.765 3.94 6.666-2.643 1.7-4.536 4.152-5.758 7.273-.418.34.346 2.06.606 2.727-2.007.998-2.018 4.866-3.333 7.272-.687 1.257-2.29 1.66-2.424 3.03-.12 1.232 1.255 2.121 1.212 3.333-2.729 1.532-2.456 4.537.304 6.06-4.618 3.582 1.869 6.675 2.423 9.394.386 1.89-.752 3.076-1.212 4.848-1.274 4.906-2.227 11.071-2.424 16.363 11.61-3.06 21.144-11.943 29.09-21.211m-90.905-53.937c-.154-1.992-3.641-2.216-5.454-1.515-2.178.84-5.065 4.558-4.243 6.969 1.824-1.051 9.895-2.895 9.697-5.454m-17.272 6.97c-.292-2.94-6.734-3.738-6.666.908 1.616 2.36 7.014 2.601 6.666-.909m12.727 2.12c-3.595-.21-3.527 4.944-7.576 5.757-2.56.514-3.719-1.102-6.666.304-.609 2.678 1.835 4.881 4.545 4.241 1.68-.396 1.468-2.291 3.03-2.726 4.822 5.155 13.572-7.17 6.667-7.576m-10.303 3.333c.924 1.875 3.474.867 4.848 0v-2.423c-2.167.256-4.552.295-4.848 2.423m45.453 32.727c-3.053 2.217-2.798 7.027-3.333 12.726-.312 3.322-1.431 7.278-1.212 9.393.127 1.225 1.26 2.164 1.515 3.637.412 2.392-.13 4.732 0 6.666-1.464.127-2.179-1.687-3.636-.606-1.212 4.568 4.977 4.299 8.787 4.849 2.52-1.823 2.323-6.364 5.152-7.879 2.145.125 3.957-.082 5.454-.606 2.762-9.04 2.536-18.19.303-26.363-1.221-4.47-4.102-8.13-5.455-12.12-1.68-4.96-2.626-9.232-3.635-14.242h-.91c.491 9.472-4.678 15.86-3.03 24.545m-11.212 19.392c.018-4.073 1.495-9.04 1.818-14.241.54-8.68 2.764-20.792-.606-26.969h-.909c-1.475 4.515-2.963 12.282-2.424 18.181.169 1.843.938 3.547.909 5.455-.13 8.708-1.567 16.956-1.212 24.544 1.383.272 1.717-.504 2.727-.606 1.11-1.984-.313-4.114-.303-6.364m-26.665-35.15c2.022 1.994 5.883-1.147 3.636-3.333-1.243 1.08-3.422 1.225-3.636 3.333m59.997 24.545c.244 2.056-.748 4.782-1.515 7.575-1.242 4.52-2.38 8.143-2.727 12.12-.413 4.711-1.967 4.463-3.637 6.97 3.882.336 8.826-.588 11.818-2.12 1.08-11.748-.236-26.183-6.06-33.03h-.606c-.657 2.928 2.35 5.305 2.727 8.485m-41.513 22.12c-.18 2.005 1.74 2.812 3.333 2.121 1.072-2.075-1.778-3.452-3.333-2.121m9.393 3.94c.97.539 1.53.587 2.727.303.44-2.39-3.288-3.533-2.727-.304"
       transform="translate(-8.896 -4.07)scale(1.0354)"
       id="path5" />
    <g
       style="stroke-width:.96581209"
       id="g6">
      <path
         d="M132.23 126.64c-.113 1.225 1.036 1.187 1.515 1.82-1.978 2.465-5.985 2.903-9.09 4.24.578-2.552 4.709-1.552 5.454-3.939-.63-1.454-3.117.997-4.243 0 1.548-1.28 3.716-1.94 6.363-2.12m3.333 3.029c2.73-.236 3.326 2.907 2.122 4.85-1.229-.085-1.312-1.315-2.122-1.82-1.636.688-1.113 3.534-3.333 3.637-.42-2.58 1.629-5.21 3.333-6.666"
         style="clip-rule:evenodd;fill:#000;fill-rule:evenodd;stroke-width:.48934481"
         transform="translate(-8.896 -4.07)scale(1.0354)"
         id="path6" />
    </g>
  </g>
</svg>
