<svg xmlns="http://www.w3.org/2000/svg" viewBox="0 0 400 282.78">
    <g fill-rule="evenodd">
        <path d="M0 282.78 400 0H0" fill="#bc0404"/>
        <path d="m0 282.78 400.16-.37L400 0" fill="#040404"/>
        <path d="m174 81.18.64-1.87-1.96.83-9.98 9.45-1.24-1.3-6.9 5.35-.15-2.05-3.81 4.18-.22-1.83-6.64 4.41-.82-.86-4.99 2-.24-1.7-1.97 1.16-.64-1.93-4.13 5.53-1.1-.33-2.57 1.95-.15-2.22-7.94 8.48-3.92 1.91-15.08-2-2.96.2 1.7 3.5 1.58 2.7 2.21 3.51 2.4 5.62-.5 2.88-.67 3.17-.93 4.08c-.53.93.87.26 1.53.2l.13 3.74 2.61 2.75c.21.14.85-.07.34.62l-.15 1.36 1.61.86.2 1.56 2.27-.2c.34.1.9.04.48.7l-.1 1.55c.48.37.68.04.3.65l1.92 1.48-2.81.93-4.97 3.06-5.8 6.21-2.9 6.47 1.41 2.08 2.4-.04 2.53-1.3-.05 1.35 1.8 1.37 3.06-.84 12.45-11.47 2.03-1.27.13 1.75-6.74 13.98-7.81 3.77-1.3 5.1 10.53 1.78 6.68-4 4.88-11.9 3.72-9.34.93 4.23-1.56 13.25 1.95 12.3 10.2-5.6-1.78-24.45-2.38-7.35 1.61-.11.6-1.08.9-.17c1 .12.66-.6.86-1.11l2.25-1.3-.58-1.73h1.4c.37.4-.11-1.04.18-.75l.62.05 3.61 3.7 1.68-.14.9 1.04 1.27.1 11.87 7.86 5.63 3.93 12.54-9.77-1.34-4.26 2-7.31-4.05-1.35 2.15-1.44 4.05 3.07-.01-1.84 3.41 1.58-1.13-3.81 4.56 4.22.35-1.95 3.03 2.2.34-4.84 3.35 3.5 53.1-37.35-5.62-6.9 1.77-.81-7.5-3.39.91-.45-5.02-1.5.52-1-11.22-1.14.2-2.15-6.84.98-1-1.53-2.2-.2 1.5-2.27-7.85 2.03.65-1.57-6.01.57v-1.33l-2.23-.47 1.9-2.5-8.25 1.4-1.87.02-.55-.3 2.38-2.68-7.5 1.65-1.55-.47.13-1.36-6.32 2.67 1.57-3.46-10.21 6" fill="#040404"/>
        <path d="M187.25 74.3c-.36.35-3.89 2.56-7.42 4.67a60 60 0 0 0-3.07 1.94c-1.03.75-1.16.74-.83-.04.15-.34.3-.72.36-.83.04-.12-.34 0-.85.27a3 3 0 0 1-.94.4c0-.19 1.15-1.55 2.32-2.75.69-.71 1.2-1.3 1.14-1.3-.35 0-2.69 1.19-3.63 1.84-2.8 1.93-4.17 3.13-7.6 6.6a61 61 0 0 1-3.85 3.73c-.09 0-.37-.45-.62-1l-.45-1.01-.52.77c-.58.89-3.32 3.41-5.1 4.71l-1.22.89.1-.8.2-1.8.1-1-.37.33c-.2.18-.88 1-1.5 1.83a55 55 0 0 1-1.8 2.25l-.66.75.08-1.25.09-1.25-.82.83c-1.24 1.27-6.4 4.98-6.62 4.76-.12-.13-.1-.34.1-.72.7-1.39.71-1.33-.08-.8-.64.44-4.3 2.12-5.27 2.43l-.4.12.09-1.11.09-1.12-.44.4a8 8 0 0 1-1.07.78l-.62.37v-.62c0-.92-.35-2.74-.52-2.74-.08 0-.15.15-.15.33 0 .81-1.93 3.85-3.58 5.63-1.24 1.35-1.4 1.43-1.29.71.1-.68.04-.65-1.41.58-.7.6-1.33 1.09-1.4 1.09-.1 0 .14-1.57.44-2.73.2-.8-.1-.52-3.22 3.06-6.24 7.16-7 7.77-10.12 8.03-2.64.23-9.56-.64-14.34-1.8-4.18-1-4.94.2-2.43 3.85.44.65 1.25 2 1.8 3a105 105 0 0 0 2.08 3.6c.6.97 1.4 2.54 1.8 3.5s.79 1.81.86 1.9c.12.18-.14 1.5-.68 3.42-.17.6-.4 1.76-.5 2.58s-.32 2.23-.46 3.13c-.28 1.68-.24 1.99.2 1.63.37-.31.73-1.7.91-3.51.09-.87.42-2.51.75-3.65.32-1.14.59-2.33.59-2.65 0-.85-1.77-5.35-2.79-7.1a117 117 0 0 1-1.67-2.99 37 37 0 0 0-1.66-2.75c-2.52-3.68-2.1-4.06 1.37-1.25a86 86 0 0 0 5.92 4.4c2.1 1.4 3.98 3 4.7 4.03q1.32 1.9 1.05.53c-.35-1.89-1.64-3.3-5.08-5.5-2.86-1.83-7.4-5.07-7.28-5.19.04-.03 1.07.2 2.3.52a51 51 0 0 0 8.98 1.46c5.94.46 7.5-.44 14.06-8.15 1.57-1.84 1.46-1.82 1.34-.33l-.1 1.2.47-.5c1.14-1.2 2.56-2.08 2.97-1.81.7.46 2.47-1.03 4.27-3.6q1.13-1.6.67.08l-.16.6.61-.37c.34-.2.9-.59 1.24-.85.65-.5.62-.52.86.27.04.12-.27.5-.68.85q-1.51 1.24.54.17c1.37-.7 4.85-2.08 5.24-2.08.15 0 .36.18.47.41.38.84.77.67 4.07-1.79 2.81-2.1 2.66-2.06 2.45-.55-.26 1.8-.4 1.9 2.78-1.87 1.89-2.22 1.79-2.18 1.64-.66l-.11 1.2.64-.6c.35-.33 1.28-1.06 2.06-1.6.78-.56 2.18-1.7 3.11-2.53 1.91-1.7 1.94-1.71 2.3-1 .25.47.24.54-.26 1.59-.53 1.13-.58 1.6-.08.78.16-.26.98-1.14 1.82-1.97s2.77-2.8 4.28-4.4c2.47-2.62 4.56-4.51 5.54-5.04l.36-.19-.31.48c-.17.27-.56.85-.88 1.29-.95 1.35-1.61 3.54-.72 2.41.46-.59 2.82-2.37 2.95-2.23.1.1-.02.51-.59 2.1-.05.14.3-.08.78-.48 2.29-1.9 8.86-6.25 9.85-6.5.31-.07.2.18-.9 2-.5.84-.92 1.6-.92 1.67s1.2-.46 2.65-1.19c4.18-2.08 4.14-2.06 4.21-1.3.05.53.08.55.75.5.49-.02.71.04.78.22.15.38.63.3 3.53-.51 1.46-.41 2.96-.8 3.33-.86l.67-.1-.62.68c-2.2 2.44-1.25 2.3 1.51-.21 2.51-2.29 2.3-2.31-4.29-.48-3.59 1-3.61 1-3.75.64-.05-.13-.28-.25-.52-.25-.54 0-.53-.05.18-1.02.33-.44.52-.81.43-.81a36 36 0 0 0-4.93 1.9c-.9.42-1.67.77-1.7.77s.25-.51.63-1.13c.86-1.39 1.93-3.54 1.76-3.54-.03 0-.2.14-.38.3m22.4 3.11c-.04.04-1.07.23-2.29.42-5.84.9-9.85 2.07-9.85 2.86 0 .2.23.17 2.17-.36 1.13-.3 6.6-1.33 7.12-1.33.42 0 .18.33-1.24 1.74-.8.78-1.41 1.43-1.37 1.43s.44-.12.89-.25c2.41-.74 3.88.15 1.95 1.17l-.77.41 1.42-.1a72 72 0 0 0 3.45-.34c2.58-.33 2.6-.32 1.54.83q-1.38 1.5-.22.9c.57-.29.97-.39 2.8-.71.77-.13 2.27-.55 3.34-.93 2.35-.82 2.37-.81 1 .5-1.3 1.26-1.3 1.26-.23 1.13 1.36-.16 2.31.03 2.53.5.5 1.12 2.42 1.37 5.44.72 1.87-.4 2.18-.41 2.18-.09 0 .56-.57 1.42-1.06 1.58-.8.28-.44.34.9.15 1.65-.23 6.37-.08 8.16.27 2.88.56 3.07.68 1.78 1.09-.85.27-.75.32 1.25.69.95.17 2.13.44 2.64.6l.91.28-.75.1-.75.1.7.2c.38.11 2.05.88 3.7 1.7 1.66.83 3.22 1.58 3.47 1.68.8.3.04.54-1.35.42l-1.18-.1 1.16.68c.64.37 1.43.99 1.75 1.37l2.02 2.28a19 19 0 0 1 4.58 7.79c2.13 6.41 5.33 12.68 7.55 14.78.49.46.5.5.24.8-.54.6-.14 1.09 1.92 2.32a29 29 0 0 1 4.61 3.32c3.68 3.1 11.7 4.59 17.74 3.28a59 59 0 0 0 7.64-2.43l.87-.36v.57c0 .98 1.12 1.73 2.14 1.43a9 9 0 0 1 1.78-.25q1-.03 2.8-.65c2.16-.75 2.14-.76 1.18.58-1.33 1.86-1.48 2.65-.5 2.65.27 0 .02.33-1.11 1.46-.87.88-1.46 1.6-1.46 1.8 0 .45-3.14 1.62-5.62 2.09-1.12.21-1.29.44-.77 1.02.16.16.25.33.21.35a46 46 0 0 1-5.2 1.05c-1.31.12-1.53.36-.93 1.01l.4.43-1.59-.11c-.87-.06-2.61-.26-3.88-.44-2.41-.35-2.62-.34-2.62.18 0 .27-.08.3-.54.23-1.4-.25-4.38-.95-5.56-1.3-1.52-.45-1.79-.41-1.7.26.07.42.04.46-.27.38a55 55 0 0 1-5.66-2.8c-1.8-1.08-2.43-1.08-2.16.01.09.34.06.4-.12.3-1.2-.7-7.02-5.85-7.56-6.68a6 6 0 0 1-.52-2.23l-.2-1.75-.7-.62c-.77-.69-1.76-1.06-3.26-1.23-.55-.06-1.1-.2-1.22-.29-.12-.1-1.22-.2-2.44-.25l-2.22-.08.08-.52c.12-.75-.13-.9-2.22-1.28-2.23-.42-4.34-1.06-4.9-1.49l-.41-.32.83.09c1.93.2 4.09.32 4.09.23 0-.05-.26-.35-.58-.66-.68-.66-.63-.85.16-.72.68.11.75-.1.25-.74-.39-.5-.36-.54.67-.95l1.08-.44c.18-.08.54-.22.8-.31.52-.2.59-.44.15-.58-.17-.06-1.09-.9-2.04-1.88-1.88-1.91-1.9-1.97-.5-2.04.84-.03.9-.25.25-.94-1.16-1.25-1.48-1.75-1.44-2.28a1.7 1.7 0 0 0-.23-.91c-.25-.39-.25-.43.08-.78.63-.67-.23-3.32-1.34-4.15-.27-.19-.48-.5-.48-.67 0-.39-1-1.39-1.93-1.93-.63-.36-.62-.34.3.6.57.57.96 1.12.96 1.33s.27.67.59 1.05.54.77.5.85.14.6.43 1.18c.5 1 .51 1.05.24 1.51s-.27.5.07 1.08c.25.42.3.65.18.77-.3.3-.2.66.4 1.56.65.95.6 1.05-.57 1.05-1.33 0-1.3.07.93 2.44 1.16 1.23 2.08 2.27 2.05 2.3s-.4.22-.82.43c-1.12.56-1.33.8-1.22 1.35.1.48.09.48-.66.48-.78 0-1.18.27-.76.51 1.25.73 1.1.83-1.03.66-1.87-.15-2.32-.29-3.46-1.05-1.11-.74-1.02-.42.24.83 1.96 1.95 3.94 2.88 7.26 3.41l1.28.2-.03.6c-.05.84.5 1.07 2.72 1.15 1.08.03 1.84.14 2 .27.13.11.93.29 1.77.39 2.39.28 3.17.75 3.32 1.98.31 2.49-.27 7.14-1.6 12.73-.61 2.54-.7 3.13-.68 4.74.02 1.91.04 1.8-1.23 6.5l-.59 2.16.74 1.2c1.95 3.15 1.16 5.65-1.78 5.6-1.55-.03-2.56-.72-4.34-2.96-.74-.93-.73-.56.02.75.92 1.6 2.6 2.92 3.95 3.1.41.07.75.16.75.21 0 .3-.67 2.24-.84 2.45-.45.54-2.7-.06-4.2-1.12-.8-.57-1.9-2.46-2.6-4.49a33 33 0 0 0-1.33-3.26c-1.58-3.14-1.57-7.06.03-11.89l.36-1.08.83-.09c.66-.06.87-.16 1-.45.09-.21.23-.38.3-.38.44 0 1.29-.6 1.5-1.05.35-.7.17-.9-.36-.4-.24.23-.77.5-1.17.61q-.73.19-.81.53c-.08.3-.18.33-.77.24-3.65-.5-6.24-.29-9.81.84-6.41 2.02-12.67 2.41-15.72.97-2.05-.97-5.12-4.27-7.66-8.24-2.18-3.41-2.95-4.49-3.5-4.91l-.6-.46.6.85c.34.47 1.2 1.9 1.91 3.17l1.3 2.31-.29.86c-.4 1.16-.37 1.17-1.1-.18-1.1-2-1.79-2-2.57-.02-.55 1.37-.53 1.37-1.51-.2-1.35-2.13-1.76-2.1-2.23.16a6 6 0 0 1-.4 1.41c-.17 0-2.28-2.48-2.98-3.47-1.05-1.5-2.44-2.43-1.8-1.21.29.57.38 5.36.1 5.36a3 3 0 0 1-.74-.7c-.67-.77-2.2-1.97-2.51-1.97-.17 0-.16.2.03.93.23.93.18 1.74-.12 1.74-.09 0-.88-.86-1.76-1.9-1.84-2.18-4.48-4.32-3.52-2.86.33.5 1.65 3.77 1.56 3.86-.04.04-.27-.1-.52-.28q-.44-.36-.86-.25-.4.11-.9-.26-.97-.73-.76.62c.14.94.07.93-1.15-.23a27 27 0 0 0-1.51-1.35l-.5-.38.38-.64c.48-.85.47-.88-.24-.59-1.1.47-3.6.2-4.64-.48l-.4-.25.58-.62c.65-.71.63-.74-.56-1.15-1.05-.37-1.07-.46-.21-.72.64-.2 1.06-.52.66-.52-.1 0-.54-.26-.97-.57s-1.3-.88-1.94-1.26a13 13 0 0 1-1.87-1.4c-.4-.37-.71-.58-.71-.47 0 .37 1.22 1.5 2.67 2.49 1.84 1.25 1.84 1.4-.04 1.79-.42.08-.67.42-.32.42.08 0 .65.23 1.26.5 1.28.58 1.32 1.09.08.97l-.61-.06.84.81a5.4 5.4 0 0 0 3.46 1.62c.69.1 1.27.21 1.3.24.12.12-1.76 1.4-2.22 1.51-.28.07-.58.16-.66.21-.29.16 1.45.52 2.53.53.96 0 1.3.16.88.42-.7.43-.48.71.5.62 1.09-.1 1.17-.02.77.76-.34.66-1.94 5.52-1.94 5.89 0 .17.17.48.37.68.23.23.4.68.48 1.26a3 3 0 0 0 .38 1.19c.22.23.26.73.23 2.86-.03 2.75.56 5.91 2.04 10.99l.94 3.25c.59 2.01.9 2.58 1.9 3.46.85.74.87.77.68 1.3-.25.73-.23 1.16.07 1.5.22.24.22.45 0 1.96-.2 1.3-.22 2.1-.1 3.45.45 5.19-1.25 7.2-7.49 8.84-1.23.32-3.7 1.08-5.5 1.68-2.93.99-3.34 1.08-4.3 1.02-2.87-.18-2.61-2.87.47-5 .35-.24.26-.23-.6.05-1.85.6-2.9 1.8-2.9 3.31 0 .96-.04.98-.83.49-2.64-1.6-1.73-5.26 1.7-6.81.39-.18.6-.33.46-.33a6 6 0 0 0-2.5.9c-1.06.6-1.21.58-.66-.12 1.42-1.81 4.9-3.27 9.15-3.83 1.5-.2 1.46-.42-.08-.44l-.83-.02-.55-3.12-.88-5.13c-.43-2.57-2.03-8.9-2.49-9.84-.4-.82-.9-1.18-4.5-3.24-1.2-.69-2.62-1.56-3.14-1.94s-1.93-1.18-3.11-1.8-2.57-1.46-3.07-1.9c-3.06-2.63-3.2-2.73-3.84-2.63-.53.09-.63.04-.89-.39-.34-.59-.75-.74-1.35-.51-1.14.43-1.44.25-3.31-2.05-.35-.43-.74-.78-.87-.78q-.25 0-.25-.55c0-.52-.24-.95-.53-.95-.07 0-.13.23-.13.5s-.08.5-.18.5q-.17 0 .01.33c.1.19.3.34.47.34s.85.7 1.62 1.66c1.55 1.93 1.77 2.07 2.9 1.8.81-.18.83-.18 1.27.35.34.4.57.53.9.5.37-.05.8.26 2.37 1.7a11 11 0 0 0 4.14 2.74c1.3.58 2.61 1.3 3.14 1.72.5.4 1.88 1.32 3.09 2.04 4.8 2.86 4.54 2.58 5.2 5.48.23 1.06.61 2.7.85 3.66s.67 3.2.97 5 .68 3.93.82 4.75c.32 1.73.38 1.63-1.28 1.98-2.62.55-5.9 2.66-6.57 4.24-.12.3-.5.72-.85.94-.73.47-2.14 1.89-2.01 2.02.05.05.42-.06.82-.24 1.62-.74 2.16.35.76 1.51a8 8 0 0 0-1.86 2.46l-.12.4.56-.42c1.4-1.05 2.51-1.2 3.24-.44.27.28.7.62.95.75l.46.24-.47.7c-.48.72-.92 1.62-.8 1.62.05 0 .41-.22.81-.5 1.41-.94 2.23-1.2 2.75-.87.6.4 2.96.38 4.12-.03l3.39-1.2c1.4-.5 3.39-1.13 4.41-1.4 3.7-.99 6.21-2.55 7.14-4.44l.56-1.13.1-4.26c.07-2.34.17-4.5.24-4.8.09-.4.04-.63-.17-.87-.24-.26-.26-.4-.1-.85.35-1 .24-1.4-.57-2.05a5.6 5.6 0 0 1-1.84-3.01l-.83-2.85c-1.6-5.32-2.3-9.15-2.18-11.82.09-1.98.06-2.21-.23-2.67a2 2 0 0 1-.34-1.04c0-.67-.4-1.7-.68-1.7-.44 0 .56-3.44 1.76-6.05.7-1.51.68-1.5 1.57-.54.87.95.84.96.8-.4-.04-1.06-.02-1.15.24-1 .16.08.42.15.58.15s.71.44 1.23.98c1.68 1.76 2.78 2.05 2 .52-.18-.36-.33-.77-.33-.91s-.22-.76-.5-1.37c-.27-.6-.5-1.12-.5-1.15s.7.71 1.55 1.65c1.33 1.45 3 2.78 3.48 2.78.07 0-.06-.27-.28-.6-.39-.57-.61-2.07-.31-2.07.05 0 .68.59 1.4 1.3 1.1 1.1 2.34 1.94 2.32 1.56l-.25-1.1a11 11 0 0 1-.14-3.71c.1-.36.12-.35.6.25s3.76 4.04 3.86 4.04c.03 0 .1-.7.16-1.55.16-2.5.23-2.56 1.18-1.14q1.6 2.4 2.21.98c.13-.28.2.17.26 1.8.18 4.1.89 7.26 1.7 7.57.33.12.41.33.57 1.4.26 1.77.63 2.6 1.26 2.86 1 .42 1.38 4 .63 5.91-.48 1.2-.48 1.89 0 2.2l.38.25-.56 1.48c-.9 2.43-3.07 6.7-4.3 8.49-1.31 1.92-1.85 2.27-5.13 3.35-2.75.9-3.61 1.39-4.58 2.6-.45.58-1.23 1.37-1.74 1.77-1.57 1.25-2.22 2.43-1.05 1.95 1.25-.53 1.7-.24.93.57-.54.56-1.52 2.47-1.39 2.7.05.07.35-.05.67-.27 1.18-.8 2.14-1 2.96-.6a4 4 0 0 0 1.58.34c.93 0 .97.04.61.67-.5.88-.12 1.36.52.65.68-.75 2.05-1.04 2.6-.54.46.42 1.85.33 4.63-.28 4.24-.93 5.06-1.55 8.4-6.25a67 67 0 0 1 2.53-3.33c.69-.82 1.88-2.44 2.65-3.58 1.43-2.12 1.63-2.46 4.92-8.17 1.54-2.68 2.06-3.43 2.94-4.26 1.2-1.14 1.3-1.49.65-2.34-.49-.63-.51-.78-.17-1.07.4-.33.3-.76-.42-1.58-.8-.92-.8-.92-.16-1.28.77-.44.7-1.25-.27-2.81a39 39 0 0 1-1-1.7l-.25-.47.86.05q1.69.09.86-1.03c-.53-.72-.5-.76.92-1 .71-.11 2.27-.51 3.46-.88 3.94-1.21 4.5-1.32 7.15-1.42 2.39-.08 2.48-.07 2.35.23a28 28 0 0 0-1.85 7.48c-.18 2.22.12 3.56 1.43 6.34.35.74.8 1.9 1 2.58 1.07 3.57 2.56 5.34 5.4 6.4 1.32.5 1.67.52 2.33.18.37-.2.55-.2.83-.06q1 .54 2.47.28c1.04-.19 1.3-.53.52-.7a4 4 0 0 1-1.35-.89l-.9-.8.13-.87c.06-.49.2-.88.3-.88s.35-.17.56-.37c.34-.32.59-.37 1.76-.37 1.97-.01 3.4-.86 1.87-1.11-.81-.13-1.7-1.07-1.84-1.97a7.5 7.5 0 0 0-1.18-3l-.61-.9.52-1.77c1.14-3.88 1.24-4.36 1.28-6.43.03-1.46.16-2.53.5-4 1.24-5.48 1.75-8.3 1.75-9.73 0-.73.2-.89.5-.36.19.37 3.57 3.42 6.16 5.57 1.97 1.63 2.39 1.76 2.47.74l.05-.61.78.46c5.15 3.03 8.58 4.16 7.71 2.53-.2-.4-.14-.41.64-.19 1.34.39 6.4 1.36 6.61 1.28.14-.05.24-.24.24-.43 0-.4-.04-.39 1.2-.18 5.22.85 7.85.72 6.68-.33-.7-.63-.73-.6.58-.72 3.16-.3 5.5-1.12 5.08-1.78-.29-.46-.32-.44.92-.67 2.64-.48 5.48-1.69 5.42-2.29-.03-.28.33-.74 1.39-1.79 1.53-1.51 1.74-2.04.9-2.25-.53-.14-.5-.28.47-1.63 2.17-3.01 2.02-3.23-1.3-1.96-1.74.66-1.95.7-2.2.47s-.45-.22-1.78.04c-1.7.33-2.32.2-2.1-.47.57-1.85.06-2-2.87-.86-10.09 3.94-18.43 3.51-24.42-1.26-.98-.78-2.58-1.9-3.55-2.48-1.6-.98-1.73-1.09-1.5-1.34.4-.45.32-.63-.9-1.96-2.46-2.7-4.96-7.47-7.38-14.05-1.38-3.77-2.56-5.72-5.39-8.91l-1.86-2.11c-.22-.25-.15-.3.72-.56 1.52-.44 1.74-.67.85-.9-.4-.1-2.1-.84-3.78-1.66l-3.05-1.5.56-.28.56-.3-1.5-.47a69 69 0 0 0-2.98-.86l-1.49-.39.55-.38q.92-.66-.45-.67c-.3 0-1.57-.19-2.85-.41-2.82-.5-5.98-.8-7.15-.68-1.02.1-1 .15-.49-1.47l.4-1.23-1.02.33c-3.47 1.1-6.23 1.49-7.06.97-.6-.39-.7-.78-.22-.93.97-.3.61-.5-.83-.44-1.59.06-1.83-.08-1.06-.59.42-.27 2.07-2.31 2.07-2.56 0-.06-.73.14-1.62.46a49 49 0 0 1-5.72 1.79 12 12 0 0 0-1.05.2c-.22.06-.11-.16.38-.78.83-1.06.83-1.07-.5-.77-.6.14-1.9.33-2.9.43s-2.05.23-2.3.28c-.37.07-.46.03-.46-.24 0-.53-.63-1.18-1.25-1.3-.8-.14-.8-.14 1.12-1.95 1.22-1.17 1.6-1.62 1.36-1.62-.19 0-.37.04-.41.08m-68.33 29.94c-2.72 2.55-3.34 3.33-5 6.22a18 18 0 0 1-2.5 3.5c-2.92 3.15-2.83 3.63.14.66 1.8-1.8 2.31-2.43 3.16-3.9 1.4-2.4 2.13-3.3 4.58-5.55 2.4-2.21 2.28-2.15 2.93-1.32 1.5 1.9 2.19 4.95 2.2 9.67 0 .9.1 1.6.27 2 .16.35.26 1 .24 1.5-.04 1.33.98 4.53 1.27 4 .28-.5.27-1.06-.04-2.4a5 5 0 0 1-.16-1.7c.07-.32 0-.88-.14-1.33-.17-.53-.27-1.8-.32-3.95-.1-4.46-1.16-7.54-3.1-9.04-1-.76-.94-.78-3.53 1.64m-3.65 8.64c0 .1.17.26.37.37.37.19.36.2-.2.4q-.6.19-.59.52a1 1 0 0 1-.3.62c-.52.53-.35.87.63 1.27 1.08.43 1.1.52.34 1-.66.4-.75.76-.25.91q.34.1.33.61v.5l1.13-.1c.61-.07 1.25-.15 1.42-.2.25-.07.28-.01.19.35-.1.38-.06.43.33.43.24 0 .48.1.53.23a.7.7 0 0 0 .36.34c.3.12-.12-.45-.61-.84-.2-.16-.2-.21.06-.35.88-.5-1.68-.77-2.78-.3-.24.1-.3.03-.3-.33q0-.46-.33-.54c-.5-.13-.4-.3.42-.73.4-.22.73-.47.7-.57a8 8 0 0 0-2-1.13q-.22-.07.15-.47c.19-.22.39-.52.44-.67.06-.15.38-.34.72-.42q1.28-.3.07-.79c-.79-.31-.83-.32-.83-.1m-29 4.98c-.54.15-.6.46-.14.7.21.1.41.22.45.25.03.03-.14.3-.38.62-.24.3-.43.65-.43.75s-.32.2-.7.23c-.66.05-.72.1-.75.55l-.03.5.3-.37q.31-.39.91-.38c.49 0 .6-.06.6-.32 0-.18.26-.59.57-.9l.57-.57-.36-.35-.35-.36h.38q.36-.01.32-.2-.13-.38-.95-.15m64.82 1.8c0 .08.13.22.3.32 1.62.97 1.63.97 1.33.63-.34-.4-1.63-1.14-1.63-.95m1.17 2.78c0 .4 3.02 2.8 3.25 2.58.04-.04-.36-.4-.88-.81a33 33 0 0 1-1.66-1.39c-.5-.45-.71-.57-.71-.38m-58.48 5.15c1.2 3.22-.16 5.59-1.8 3.14q-.4-.57-.39-.27c0 .5 1.07 1.42 1.65 1.42 1.56 0 1.96-2.01.86-4.3q-1.3-2.62-.32 0m5.84.76c-.07 3.03 2.75 4.3 3.96 1.8.44-.89.44-1.38 0-.57-1.23 2.34-3.6 1.56-3.84-1.27l-.1-1.17zm12.3.8c-.6.13-1.87.31-2.83.4-2.87.28-4.96 1.64-6.14 4.02-.75 1.49-.52 2.57.33 1.54.53-.64 1.53-.9 3.5-.87 3.64.05 5.6-1.29 5.53-3.79-.02-1 0-1.04.46-1.2 1.07-.38.65-.42-.85-.1m-.52 1c.8 1.77-1.54 3.6-4.76 3.7l-2.03.08-.11-.44c-.21-.82.45-1.8 1.74-2.57l.57-.34.36 1.03c.5 1.47.84 1.4.84-.18v-1.22c0-.03 2.55-.45 2.85-.47q.34 0 .54.41m-26.08.28c.18.13.27.33.2.43-.18.3.38 1.94.9 2.68.78 1.07 1.3 1.25 3.37 1.2 1.62-.03 1.82 0 2.08.3.71.84 1.07.36.53-.7a7 7 0 0 0-5.2-3.77l-1.61-.27c-.54-.1-.56-.1-.27.13m2.68.8c.65.17.73.25.82.8.32 1.96.81 2.46 1 1.03.13-.94.23-1 .75-.44.6.64.67 1.56.12 1.7q-2.83.71-3.89-2.24l-.36-1.02h.42c.23 0 .74.08 1.14.18m42.25-.1c-.04.1-.3.28-.58.43-.55.28-.57.47-.23 1.96l.2.88-.6.62c-.34.34-.62.75-.62.9 0 .17-.12.3-.26.3s-.24.09-.2.2c.71 1.91.5 2.78-.79 3.35-.53.24-1.02.73-.87.87.04.05.44-.16.87-.46.44-.3.99-.67 1.23-.81.57-.34.62-.74.22-1.78-.31-.83-.31-.85 0-.93a.4.4 0 0 0 .3-.39c0-.17.3-.59.67-.93.76-.71.84-1.2.4-2.3-.27-.66-.26-.69.1-1.07.2-.22.33-.53.3-.7q-.07-.26-.14-.14m-33.31 1.4c-.13.09-.63.11-1.1.06-.5-.05-.91-.01-.97.08-.19.3 1.75.39 2.62.12.45-.13 1-.2 1.23-.13q.43.1.3-.09c-.14-.22-1.74-.25-2.08-.04m-15.3.8c-.56.86-.51 2.55.1 3.1.28.25.52.6.52.8 0 .18.07.48.17.66.16.3.1.32-.8.33-2.3 0-5.17.49-6.58 1.1-.85.37-.7.46.22.14 3.05-1.1 7.76-1.32 8.1-.4.16.4.3.5.79.51l.76.04c.39.04.18-.33-.3-.55-1.54-.7.24-.58 2.52.17.8.27 1.56.48 1.67.47.44-.02-2.07-.88-3.39-1.15-1.3-.26-1.42-.32-1.46-.72-.04-.3-.2-.47-.55-.6q-.48-.16-.49-.5c0-.18-.18-.55-.41-.82-.47-.56-.52-1.03-.2-1.97.38-1.07-.1-1.5-.67-.61m12.05.76c-.27.2-.22.23.57.25.88.02.97-.17.16-.37a1 1 0 0 0-.73.12m5.57-.1c-.34.13-.84.58-.84.75 0 .08.17.04.38-.1.2-.13.77-.3 1.25-.35.48-.07.83-.18.78-.26-.1-.16-1.17-.18-1.57-.03m64.66 1.55c1.19 1 1.19 1 .34 1-.6 0-.67-.05-.67-.41q-.02-.75-1.18-.76c-.53 0-.53 0-.24-.33.44-.48.62-.43 1.75.5m24.52 1.96c.4.05.82-.44.82-.96 0-1.2.32-1.06 1.68.72 3.93 5.17 6.6 6.5 12.43 6.16 2.67-.15 2.82-.14 3.1.16.46.52.35.65-.46.53-1.28-.19-1.2.72.28 3.3.88 1.53.89 1.65.12 2.05-.71.37-.67 1.13.1 2.04.58.67.59.7.32 1.1-.28.45-.22.68.43 1.72.25.4-.15 1.16-1.26 2.38-.55.6-2.55 3.72-5.17 8.05a56 56 0 0 1-4.66 6.72 72 72 0 0 0-3.83 5.16c-2 2.87-2.85 3.38-7.17 4.26-3.06.62-3.48.6-3.84-.27-.62-1.49.1-3.2 1.97-4.7.82-.67.5-.7-.62-.09a5 5 0 0 0-2.2 2.65 2.96 2.96 0 0 1-4.97.86c-1.36-1.62-.02-3.5 3.08-4.33 1.03-.27.43-.37-.95-.16-1.38.22-1.42.18-.46-.45.76-.5 1.3-.73 4.74-1.97 3.06-1.1 4.19-2.28 6.39-6.66 2.56-5.11 3.54-8.4 2.5-8.4q-.27 0-.14-.3c1.08-2.7.49-7.53-.93-7.53-.6 0-.73-.28-1-2.27-.19-1.32-.25-1.47-.68-1.72-.94-.53-1.95-5.49-1.73-8.5.15-2.05.17-2.07.99-.73.53.86.8 1.15 1.12 1.18m-77.27.46c-1.66.23-4.32.95-4.49 1.23-.04.08.58-.07 1.38-.32 3.47-1.09 6.4-1.2 9.76-.36 2.4.6 3.07.61.9.03-3.16-.86-4.64-.97-7.55-.58m-17.9 1.47c-.39 1.14.15 2.33 1.99 4.38.5.56 1.08 1.3 1.27 1.62l.37.59-.58.74c-.4.5-.88.87-1.55 1.17-1.13.51-1.18.52-1.18.19 0-.19-.2-.25-.82-.25-.67 0-.88-.07-1.14-.4a2 2 0 0 0-.76-.52c-.34-.09-.45-.22-.45-.54 0-.41 0-.42-.33-.12-.5.44-.41.64.42 1.05.74.36.98.7.49.7-.44 0-3.83 1.58-5.13 2.39-4.04 2.52-7.49 6.23-8.8 9.49a21 21 0 0 1-1.19 2.35c-2.38 3.95.81 6.84 4.59 4.16.97-.69.91-.7.9.09-.07 2.37 2.67 2.8 5.58.89 1.23-.81 4.77-4.03 7.6-6.92 2.32-2.36 6-5.72 6.12-5.6.26.27.03 1.3-.62 2.81-2.13 4.9-4.7 10.05-5.94 11.92-.52.78-2 1.58-3.69 2.01-2.34.6-4.28 2-5.16 3.73a6 6 0 0 1-1.08 1.49c-1.44 1.34-1.8 2.25-.62 1.58 1.35-.76 1.67-.68.87.22-.81.92-1.67 2.33-1.67 2.76 0 .38.02.38 1.05-.2 1.7-.96 2.75-1.23 3.58-.91.4.15.69.32.66.38a10 10 0 0 0-.91 2.13c.05.04.6-.17 1.23-.49 1.84-.91 2.53-1.05 3.72-.71 1.78.5 4.84-.22 8.13-1.91 2.08-1.07 3.54-3.33 4.8-7.41a75 75 0 0 1 2.4-6.84c.44-1.1 1.27-3.3 1.83-4.91l1.18-3.3c.09-.21.17-.55.17-.75.03-.62.49.62.76 2.01.38 2.03.16 5.72-.5 8.3-2.16 8.45-.58 18.46 4.01 25.4 6.3 9.52 21.88 16.15 39.05 16.62 6.51.18 10.04-.25 20.25-2.45 5-1.08 9.5-2.77 15.84-5.95 3.36-1.69 10.14-5.87 18.6-11.49 1.44-.95 2.72-1.73 2.84-1.73s.56-.2.97-.43c11.92-6.85 26.06-10.05 37.59-8.51 3.78.5 11.6 2.2 13.9 3.02 15.97 5.67 26.99 3.53 38.44-7.45 1.49-1.42 1.77-1.63 2.28-1.63a1.8 1.8 0 0 0 1.65-1.24c.16-.44.32-.59.75-.67.62-.11 1.2-.75 1.35-1.47.05-.3.24-.53.48-.62.66-.25 1.06-.79 1.06-1.4 0-.42.1-.64.35-.77.4-.22.99-1.12.99-1.55 0-.17.18-.53.41-.8.23-.28.42-.68.42-.9s.23-.61.51-.9q.5-.5.46-.89c-.02-.2.1-.66.26-1.01s.26-.8.2-1.01.03-.53.17-.74c1.2-1.71-1.14-3-2.7-1.48l-1.07 1a2 2 0 0 0-.43.73 2 2 0 0 1-.6.85c-.25.22-.47.5-.47.64s-.21.43-.48.66-.53.6-.58.82c-.06.21-.32.47-.6.58-.31.14-.6.44-.77.84q-.29.62-.83.89-.54.26-.75.84t-.7.79c-.26.1-.66.49-.89.84s-.5.64-.62.64c-.32 0-1.25.97-1.3 1.36-.1.58-4.88 2.96-8.28 4.12-8.3 2.83-14 2.5-26.78-1.56-9.12-2.89-12.85-3.67-19.67-4.12-6.2-.4-11.99-.15-16.33.72a103 103 0 0 0-18.17 5.43l-4.25 1.83a120 120 0 0 0-12.25 6.43c-8.62 5.16-12.13 6.9-17.97 8.9-7.52 2.57-13.82 3.65-22.38 3.84-18.11.4-28.12-4.17-31.55-14.4-.86-2.56-1.23-7.68-1.07-14.8.16-7.33-.54-11-2.78-14.7-1-1.65-1-1.55-.03-1.55.92 0 1.2-.2 1.2-.87 0-.4.06-.46.49-.46.27 0 .54-.08.6-.18q.1-.18-.7-.12c-.77.04-.8.07-.86.57-.1.97-1.67.9-2.83-.12-1.2-1.05-3.7-2.4-5.06-2.74q-2.53-.64-.18-1.69c1.04-.46.97-.47 3.37.62.97.44 1.98.84 2.25.9.28.05.4.04.25-.01l-1.91-.9c-.92-.43-1.84-.84-2.04-.9-.3-.1-.34-.19-.23-.4q.15-.29-.06-.7c-.2-.35-.18-.43.14-.69.28-.23.32-.35.18-.58-.26-.42-.57-.48-.47-.1.07.25-.04.37-.44.51l-.53.19.35.44c.53.68.35.72-2.55.62-1.59-.06-2.76-.04-2.81.05s.42.12 1.14.09c.69-.04 1.67-.01 2.2.05l.95.12-.62.32c-.58.3-.7.48-.83 1.38-.03.18-.4.54-.85.81l-.8.49-1.03-.42a19 19 0 0 0-1.45-.54c-.76-.2-.18.15.95.58.6.24 1.14.54 1.18.67q.1.24-.2.12c-.24-.09-.26-.02-.17.48l.1.58-.55-.1a7 7 0 0 1-.81-.18 37 37 0 0 0-3.17-.24c-5.57-.29-6.23-.79-3.48-2.66 2.45-1.67 3.1-4.73.77-3.67a11 11 0 0 1-2 .59c-.66.13-1.72.35-2.35.5q-2.6.63-2.93-1.37l-.11-.62zm-8.08.7c-.58.58-.56 2.01.03 1.95.49-.05.48.26 0 .37-3.88.83-7.07 2.15-8.6 3.55l-.61.56.8-.53c2.32-1.52 7.23-3.33 9.05-3.33.54 0 .56.03.57.63 0 .97.2 1.17.86.89.3-.13.9-.27 1.34-.3s.8-.14.8-.22c0-.23-.97-.37-1.7-.24l-.68.11.11-.47c.17-.65.07-.62 1.89-.61 1.43 0 1.52 0 .7-.12a18 18 0 0 0-1.7-.15c-.59-.01-.8-.08-.8-.27q.02-.25-.58-.25c-.32 0-.58-.07-.58-.16s-.2-.17-.43-.17c-.35 0-.42-.06-.33-.3.38-.96.31-1.4-.14-.94m38.65 2.4c-.05.1.02.51.16.93.31.92.27 1.02-.54 1.15-.81.14-1.78 1.09-1.62 1.58.12.4.42.47.42.1 0-.5.77-1.08 1.57-1.2 1.13-.15 1.3-.69.56-1.76l-.32-.46h.8c.74-.01.78-.03.48-.25-.37-.28-1.35-.33-1.5-.09m-34.32 2.08c-.05.13-.41.33-.8.43-3.5.88-6.07 2.19-8.06 4.08-.94.89-.47.68 1.09-.5a16 16 0 0 1 5.72-2.9c1.36-.42 1.28-.4 1.28-.12 0 .22.97.69 1.12.54.04-.04-.03-.23-.15-.42-.33-.53.02-.73 1.34-.75.66 0 1.1-.08 1.02-.16s-.6-.12-1.15-.07c-.77.05-1.02.01-1.02-.15 0-.3-.27-.28-.39.02m25.11 1.99c4.72 2.93 6.93 9.4 6.31 18.42-.19 2.79-.1 6.96.24 10.1.66 6.36 3.74 11.76 8.48 14.84 3.96 2.58 7.09 3.58 13.25 4.25l3.75.42c2.81.33 9.74.38 12.59.1l3.66-.37c7.29-.72 17.47-3.89 24.5-7.63a251 251 0 0 0 11.09-6.26l3.08-1.76c7.73-4.75 20.95-9.27 31.55-10.8 1.72-.24 3.2-.29 9.62-.27l7.58.01 2.33.54c5.32 1.21 8.78 2.19 14 3.93 1.58.53 4.88 1.44 7.42 2.05 9.25 2.23 18.7.71 25.95-4.16 1.7-1.14 3.2-1.06 3.73.22.32.78 0 1.17-2.78 3.49-13.08 10.88-20.8 12.05-38.99 5.89-3.28-1.11-10.8-2.43-15.7-2.75-7.1-.48-13.76.67-24.38 4.2-4.41 1.47-10.36 4.53-15.86 8.17-19.16 12.67-25.3 15.34-40.8 17.79-20.04 3.16-41.62-3.61-49.57-15.56-4.25-6.4-5.54-15.1-3.62-24.42 1.53-7.4.16-13.22-3.33-14.17l-.92-.26c-.1-.02-.43-.47-.72-.98q-1.16-2.05-.96.32c.1 1.47.26 1.36-2.18 1.47l-1.54.08-.85-1.07c-1.2-1.5-1.45-1.3-.9.79l.2.8-1.55 1.19c-.85.65-2.6 2.27-3.89 3.6s-3.19 3.18-4.22 4.1l-3.34 2.97q-2.24 2-3.28 1.99h-.4l.43-.46c1.98-2.1 4.43-7.78 4.8-11.12.14-1.18.33-2.02.53-2.36.33-.55.4-.96.16-.87-.08.04-.62.7-1.2 1.48-1.53 2.03-5.73 6.16-9.54 9.38-1.52 1.3-1.8 2.35-.74 2.78.3.12.2.15-.5.16-1.48.02-2.37-.83-2.37-2.26 0-.2.36-1.06.81-1.92a27 27 0 0 0 1.28-2.86c.4-1.16.5-1.3.8-1.21.2.05.63.09.97.1h.62l-.03.9c-.05 1.18.25 1.21.44.05l.15-.9.87.08q.88.06 1-.14c.19-.3-.23-.5-1.04-.5h-.7v-1.01c0-1.11-.38-1.37-.47-.3-.1 1.33-.48 1.6-1.58 1.17-.97-.38 5.36-6.1 9.04-8.16 2.21-1.23 5.34-2.01 5.34-1.32 0 .28.07.31.46.22.87-.22.99-.17 1.56.57.6.8 1.09.99 1.02.42l-.14-1.09c-.1-.7-.05-.8.6-1.62.96-1.21 1.01-1.23 2.75-.86.82.17 1.85.31 2.29.31.74 0 .8.04 1.03.59.27.64 1.24 1.92 1.46 1.92.07 0 .13-.53.13-1.17v-1.17h.66c.35 0 1.22.11 1.92.25 1.62.3 2.4-.2 1.57-1.03q-.2-.18.17-.3c.86-.27 3.74 2.4 4.68 4.36.3.63.59 1.05.62.95.25-.73-1.84-3.47-3.67-4.83l-.96-.71.62-.32.62-.32 1.4.55c.76.3 1.93.88 2.6 1.3m-6.81 7.3c.54-.25 1.13.02 2 .91.75.78.74.92-.12 1.58-.4.3-.86.72-1.05.94-.63.74-4.8.52-6.56-.35-.98-.48-1.36-2.44-.48-2.45.3 0 .69-.11.87-.25.2-.15.73-.25 1.41-.26.6 0 1.43-.06 1.85-.13.4-.06.95-.04 1.2.05q.43.17.88-.04m-18.67 1.43-.26 1.42c-.2 1.2-.29 1.3-.61.79-.12-.19-.36-.34-.54-.34-.49 0-.42-.14.51-1.2s.98-1.1.9-.67m223.76 1.38q.34.16.33.76v.58l-.62-.42c-.35-.24-.8-.43-1-.43-.49 0-.5-.23 0-.46q.71-.34 1.3-.03m-210.4.92c.11-.04.53.04.92.18 1.57.57 5.3.5 5.3-.1 0-.29.58-.64.76-.46.11.1-.85 2.81-3 8.43a260 260 0 0 0-2.1 5.6c-1.63 5.2-4.23 7.9-8.74 9.08-5.67 1.48-7.67-3.92-2.42-6.53 1.05-.52.61-.66-.67-.21-2.33.82-3.73 3.03-3.18 5.02.49 1.75-2.2 1.06-3.13-.8-.93-1.9.7-3.81 4.41-5.14 1-.36 2.4-.96 3.11-1.33 1.32-.68 3.13-1.22 3.56-1.05.12.05.23.01.23-.08 0-.23-.37-.35-1.43-.48-.5-.05-.9-.12-.9-.15s.47-.97 1.04-2.1c1.52-2.98 4.35-9.14 4.85-10.54.1-.3.16-.27.64.21.29.3.62.5.74.45m-14.26.22c.54.43.34 1-1.62 4.86-2.48 4.88-3.62 5.98-4.47 4.33-.33-.62-.32-1.06 0-1.7.42-.78.19-.75-1.25.2-1.18.76-1.4.86-1.92.76-1.1-.2-.83-.7 1.36-2.63a262 262 0 0 0 4.13-3.73c2.8-2.6 3-2.71 3.77-2.1m223.63.21c.62.22.86.59.86 1.34v.54l-.46-.43c-.46-.43-1.63-.86-1.9-.7q-.13.06-.14-.16c0-.53.9-.84 1.64-.59m-.64 1.57c.6.32 1 .87 1 1.43q0 .94-.54.23c-.41-.53-1.02-.84-1.92-.99-.85-.14-.89-.29-.17-.64.68-.34 1.02-.34 1.63-.03m-.33 1.84c.35.33.5.63.5 1.01 0 1-.15 1.1-.71.47a3.2 3.2 0 0 0-2.11-1.17c-.78-.12-.85-.26-.31-.65.6-.44 2-.26 2.63.34m-1.73 1.1c1.35.64 1.76 1.7 1.02 2.56l-.38.44-.86-.84a4 4 0 0 0-1.59-1.03l-.93-.25c-.35-.1.08-.73.69-1 .74-.32 1.22-.3 2.05.11m-1.67 1.83c1.42.69 2.14 2.31 1.39 3.13-.45.48-.44.48-.86-.41a4 4 0 0 0-2.58-1.94q-1.2-.34.01-.88c.73-.32 1.22-.3 2.04.1m-1.56 1.6c1.83.92 2.38 2.97 1 3.7-.4.2-.45.16-.6-.51-.23-.93-2.11-2.47-3.02-2.47-.4 0-.31-.26.2-.64.56-.43 1.68-.46 2.42-.09m-1.6 1.82c1.47.73 1.9 2.6.81 3.53-.7.6-.85.5-.78-.52.08-1.31-.65-2.11-2.03-2.23-1.05-.08-1.13-.2-.54-.8.54-.53 1.44-.53 2.54.02m62.09 101.11c-.23.23-.27.64-.07.64s.53-.38.53-.62c0-.27-.2-.28-.46-.02m3.71 1.16c-.45.16-1.03.3-1.27.3s-.48.12-.54.26c-.11.3.16 1.08.38 1.08.25 0 .38-.3.19-.41-.41-.25-.11-.53.74-.68.5-.1.92-.14.92-.1 0 .16-1.68 2.31-2.15 2.77-.9.84-.73 1.08.4.59.98-.42 1.45-.42 2.67 0 1.19.4 2 .25 2.65-.52.48-.56.57-1.15.17-1.15-.14 0-.24.1-.22.21.16.98-1.3 1.58-2.58 1.04a5 5 0 0 0-1.52-.25h-.92l.8-.98c1.62-2.04 1.7-2.66.28-2.16m-7.9.11c-.56.22-.75.24-.8.08-.1-.3-.38-.27-.38.04q0 .25-.51.25t-.45.2c.04.13.32.19.72.16.72-.05 1.08.33 1.31 1.4.16.75-.54 1.6-1.05 1.28-.35-.21-.63-.02-.44.29.21.34 1.1.18 1.51-.27.5-.54.52-1.21.09-2.17l-.31-.69.65-.25c.35-.14.65-.34.65-.44 0-.23-.1-.22-.99.12m-12.26.24c.16.51.54 3.24.68 4.92l.12 1.37h.56c2.37 0 3.23-2.67 1-3.09-.58-.1-.61-.15-.61-.73 0-.4-.15-.83-.42-1.2l-.79-1.1c-.44-.62-.72-.71-.55-.17m21.6.03c-.74.79-.1 2.1 1.03 2.1.25 0 .46-.08.46-.17s-.18-.17-.4-.17c-.4 0-1.01-.53-.82-.72.06-.06.31-.11.56-.11.64 0 1.5-.33 1.5-.57 0-.8-1.68-1.04-2.33-.36m1.78.21c.07.22-1.4.5-1.59.31-.06-.06.03-.23.22-.36.38-.28 1.27-.24 1.37.05m-6.71.18c.1.26.3 1.16.52 2.33.04.2.18.38.32.38.26 0 .34-.42.1-.57-.08-.05-.2-.48-.26-.96-.06-.47-.19-1-.28-1.17-.2-.39-.55-.4-.4-.01m-9.41.02c0 .08.23.2.52.25 1.02.2 1.36 1.15.62 1.67-.49.34-.58.25-.71-.73-.1-.77-.3-1.04-.5-.7-.05.08-.01.42.08.76s.23 1.18.31 1.87c.13 1.16.37 1.77.6 1.54.05-.05 0-.45-.09-.89-.23-1.03-.24-1.03 1.19-.43.78.33 1.27.45 1.37.35s-.05-.25-.45-.42l-1.22-.5-.61-.25.34-.38c.76-.83.61-1.78-.34-2.11-.6-.21-1.11-.23-1.11-.03m6.83.2c0 .09-.15.33-.33.53-.46.48-.46 1.6 0 2.09 1.25 1.34 3.25-.17 2.4-1.82-.36-.7-2.07-1.36-2.07-.8m-19.33.26c-3.43 1.05-3.24 6.13.24 6.52 1.42.16 3.07-.97 3.57-2.44.85-2.56-1.3-4.86-3.81-4.08m6.5.9c.2.5.1 1.33-.16 1.33-.15 0-.22-.24-.45-1.59-.13-.78.24-.63.6.26m14.34-.42c.72.65.24 1.91-.72 1.91-.66 0-1.11-.43-1.11-1.05 0-1.05 1.07-1.55 1.83-.86m-18.28.28c1.08.78 1.36 2.53.6 3.8-.39.62-.6.54-.75-.3-.06-.34-.17-.7-.25-.79-.18-.22-.99-2.71-.99-3.03s.71-.16 1.39.32m-2.32.1-.4 1.7-.5 2.24-.2 1-.55-.6c-1.2-1.31-.8-3.5.82-4.5.73-.44.96-.4.83.15m9.77-.1c0 .1-.15.37-.34.6-.8 1.03-.1 3.04 1.06 3.04 1.02 0 1.7-1.98 1.02-2.96-.45-.63-1.74-1.15-1.74-.69m-8.82 1.26.43 1.44c.08.25-.03.29-.76.29-.47 0-.85-.06-.85-.13s.1-.55.23-1.05l.34-1.38c.14-.63.2-.54.61.83m10-.45c.81.81.48 2.34-.51 2.34-.96 0-1.37-1.5-.66-2.4.44-.55.57-.54 1.17.06m-3.26 1.25c.97.4.91 1.12-.14 1.77-.76.46-1.06.41-1.26-.22q-.8-2.5 1.4-1.55m-5.94 1.64c.39 1.04.38 1.07-.21 1.35-.93.44-2.1.37-2.1-.13 0-1.33.2-1.55 1.46-1.58.6-.02.73.04.85.36" fill="#f2f1f1"/>
    </g>
</svg>
