<svg width="400" height="240" viewBox="0 0 400 240" xmlns="http://www.w3.org/2000/svg">
  <path style="fill:#7b1c93;stroke:none;stroke-width:1.914;stroke-linejoin:round;fill-opacity:1" d="M0 0h400v240H0z"/>
  <path d="M0 146.5V240h110L400 70V0H250" fill="#040404" fill-rule="evenodd"/>
  <path style="fill:#fff;fill-opacity:1;stroke:none;stroke-width:1.914;stroke-linejoin:round" d="M193.517 89h-44.069s-1.21 15.628 10.202 30.088c10.79-12.541 20.794-17.476 33.85-19.088zm12.966 0h44.069s1.21 15.628-10.202 30.088c-10.79-12.541-20.794-17.476-33.85-19.088Zm-12.966 0h-44.069s-1.21-15.628 10.202-30.088C170.44 71.453 180.444 76.388 193.5 78zm12.966 0h44.069s1.21-15.628-10.202-30.088C229.56 71.453 219.556 76.388 206.5 78Zm-10.977-18.5-.006 110c1.042.957 2.546 1.736 4.5 1.747V68.928c-2.094.023-3.592.498-4.494 1.572m8.988 0 .006 110c-1.042.957-2.546 1.736-4.5 1.747V68.928c2.094.023 3.592.498 4.494 1.572"/>
  <path d="M235.564 89c.005 9-2.949 14.747-6.547 19.439 2.76 2.08 3.044 2.3 5.847 4.86 9.637-11.14 8.268-9.337 7.906-24.299m-78.334 0c-.005 9 2.949 14.747 6.547 19.439-2.76 2.08-3.044 2.3-5.847 4.86-9.637-11.14-8.268-9.337-7.906-24.299m78.334 0c.005-9-2.949-14.747-6.547-19.439 2.76-2.08 3.044-2.3 5.847-4.86 9.637 11.14 8.268 9.337 7.906 24.299m-78.334 0c-.005-9 2.949-14.747 6.547-19.439-2.76-2.08-3.044-2.3-5.847-4.86-9.637 11.14-8.268 9.337-7.906 24.299" fill="#f5abb9" fill-rule="evenodd"/>
  <path d="M242.77 89c0 8.115-2.962 18.282-7.907 24.298 2.751 2.7 2.946 2.917 5.487 5.79 6.45-6.45 10.425-19.895 10.425-30.088m-93.545 0c0 8.115 2.962 18.282 7.907 24.298-2.751 2.7-2.946 2.917-5.487 5.79-6.45-6.45-10.425-19.895-10.425-30.088m93.545 0c0-8.115-2.962-18.282-7.907-24.298 2.751-2.7 2.946-2.917 5.487-5.79 6.45 6.45 10.425 19.895 10.425 30.088m-93.545 0c0-8.115 2.962-18.282 7.907-24.298-2.751-2.7-2.946-2.917-5.487-5.79-6.45 6.45-10.425 19.895-10.425 30.088" fill="#5ccaf9" fill-rule="evenodd"/>
</svg>
